<svg xmlns="http://www.w3.org/2000/svg" viewBox="0 0 37.72 41.01"><defs><style>.cls-1{fill:#1d1d1b;}</style></defs><title>Recurso 1</title><g id="Capa_2" data-name="Capa 2"><g id="Capa_1-2" data-name="Capa 1"><path class="cls-1" d="M10.89,34.09a.38.38,0,0,0,.11-.16s.08,0,.13,0l.14-.12a.38.38,0,0,0-.11-.14.25.25,0,0,1-.13-.36l-.14-.09a2.58,2.58,0,0,0-1-.37.06.06,0,0,1,0,0,.64.64,0,0,1-.35-.17,4.38,4.38,0,0,1-1.29-2.11.3.3,0,0,1,0-.21c.1-.11,0-.21,0-.32-.2-.52-.43-1-.61-1.56,0-.15.07-.34,0-.5a.88.88,0,0,1,.13-.64,3.82,3.82,0,0,1,.55-.9.55.55,0,0,0,.11-.28,2.18,2.18,0,0,1,.26-.56h0a4,4,0,0,1,.67-.94,2.67,2.67,0,0,0,.4-.59c.12-.21.16-.44.28-.65a.63.63,0,0,1,.29-.24c.22,0,.3-.19.4-.38a.84.84,0,0,1,.08-.2,1.19,1.19,0,0,1,.24-.4c.19-.19.39-.37.58-.58a4,4,0,0,0,.83-1.25,1.13,1.13,0,0,0,.12-.18c.16-.25.3-.51.48-.77,0,0,0,0,0,0a6.09,6.09,0,0,1,.51-.74.21.21,0,0,1,.15-.07c.28,0,.56-.22.86-.11l.07,0c.19-.12.4-.23.59-.36a.13.13,0,0,0,.07-.06.76.76,0,0,0,.08-.11c0-.1,0-.18-.08-.18a.08.08,0,0,0-.07,0,.29.29,0,0,1-.19-.08,2.34,2.34,0,0,1-.23-.22l-.06.05a.42.42,0,0,1-.45-.16c-.1-.17,0-.23.11-.33a9.46,9.46,0,0,0,.68-.74c.08-.08.14-.16.21-.24l.17-.19c.08-.1.21-.16.29-.26A1.48,1.48,0,0,1,17.42,15a.47.47,0,0,1,.24-.24,1.92,1.92,0,0,1,.79-.28c.16,0,.32,0,.48-.09s.53-.25.8-.33l.16,0c.28-.06.53-.09.81-.16s.57-.16.86-.24.31-.06.45-.1l.13,0a2.85,2.85,0,0,1,.39-.11,4.75,4.75,0,0,0,.85-.18c.15-.05.26-.22.37-.35s.05-.13.1-.19c.19-.26.37-.5.56-.74l0,0a1.14,1.14,0,0,1,.3-.23c.27-.14.56-.27.84-.4s.35-.22.54-.3l.55-.24.93-.41a.35.35,0,0,0,.16-.08.1.1,0,0,0,.08-.06,1.36,1.36,0,0,1,.66-.39A1.89,1.89,0,0,0,29,9.5l.41-.29c.12-.1.23-.21.33-.31s.17-.26.28-.29c.47-.11.6-.46.73-.85,0,0,0-.1,0-.11a.62.62,0,0,1-.12-.73s0-.11,0-.12-.23-.23-.34-.34-.18-.15-.21-.24a.93.93,0,0,1,.07-.78,2.28,2.28,0,0,1,.27-.27c.14.23.27.27.48.19s.26,0,.26-.24a.89.89,0,0,1,.16-.35c-.23,0-.42-.21-.68-.13a.27.27,0,0,1-.11,0,.43.43,0,0,1-.16-.51.52.52,0,0,0-.1-.53A2.46,2.46,0,0,1,30,3.19a.66.66,0,0,1-.29-.11.4.4,0,0,1-.18-.24,1.1,1.1,0,0,1-.05-.4c0-.52,0-1,0-1.55,0-.33-.05-.38-.36-.51L28.48.06c-.07,0-.18-.08-.23,0a1.73,1.73,0,0,0-.53.42.47.47,0,0,1-.51.24L26.32.56a2.28,2.28,0,0,0-.37,0h-.67a.54.54,0,0,0-.18,0c-.13,0-.19.08-.13.22a1.44,1.44,0,0,1,.1.37c.1.37-.05.55-.43.56a.34.34,0,0,0-.17.05c-.12.1-.24.18-.35.28l.15.19-.17-.18L24,2.16c-.21-.25-.47-.16-.68-.12s-.49,0-.62.27c0,0-.11.1-.18.13s-.24,0-.34.08-.09.06-.13.13,0,0-.06,0a3.75,3.75,0,0,1-.47,0c-.25,0-.48-.11-.48-.31l-.38,0a1,1,0,0,1-.39-.06,1.33,1.33,0,0,0-.34-.16.65.65,0,0,0-.34,0c-.09,0-.14,0-.16.14s-.08.15-.11.21-.19-.06-.22-.13-.16-.37-.28-.51-.25-.39-.54-.27a1.08,1.08,0,0,1-.31,0,.81.81,0,0,0-.27,0s0,0,0,0c-.28.08-.37,0-.49-.21a.49.49,0,0,0-.32-.32A5.14,5.14,0,0,0,16.27,1C16.16,1,16,.89,16,.94s-.21,0-.32-.06a1.27,1.27,0,0,0-.22-.13L15.23.67a.31.31,0,0,0-.13,0,3.23,3.23,0,0,0-.59-.16c-.23-.07-.33,0-.34.27s-.05.34-.08.51a.66.66,0,0,1,.09.15s0,0,0,.05a.36.36,0,0,1,0,.29c0,.05-.18,0-.26,0h-.12a1,1,0,0,0-.23,0,3.54,3.54,0,0,1-.56,0c-.24,0-.29,0-.39.26a1.46,1.46,0,0,0-.06,1,1.29,1.29,0,0,0,.08.26.41.41,0,0,0,.14.21,1.61,1.61,0,0,1,.31.19s.05.05.05.08a.28.28,0,0,1,0,.15s0,.05,0,.06-.08,0-.1.07a.57.57,0,0,0-.24.22,1.16,1.16,0,0,0-.13.37c.06.08.18.16.22.27a.23.23,0,0,1,0,.25.51.51,0,0,0-.13.57.34.34,0,0,1,0,.2.58.58,0,0,1-.48.4c-.1.19-.15.34-.23.47a3.47,3.47,0,0,1-.29.38c0,.19,0,.19-.13.34s-.14.18,0,.3,0,.15,0,.23-.05.26.13.35.24.32.21.37,0,.26.05.37c.14.32.13.37-.18.52,0,.16.08.29.11.46-.19,0-.37-.08-.5,0a1,1,0,0,0-.3.31.16.16,0,0,0,.06.08.18.18,0,0,1,0,.33,2.12,2.12,0,0,1-.35.23l-.26.18c.28.46.13.51-.16.9l-.42-.36c-.13.18-.24.32-.33.47.24.3.24.3.61.37a.23.23,0,0,0,.11,0c.14,0,.22.23.13.31s-.12.22-.12.35,0,.37,0,.56a.37.37,0,0,1-.08.18c-.06.06-.14.1-.21.16s-.24.21-.4.34a1.33,1.33,0,0,0,.11.26.52.52,0,0,1,.08.64,4.22,4.22,0,0,1-.42.55s-.09,0-.16,0H8.9c0,.09,0,.2,0,.27s0,0,0,0v0a.24.24,0,0,1-.16.12,4.23,4.23,0,0,1-.5-.05H7.93s0,.05,0,.06a.59.59,0,0,1,.21.1l.29.17A2.52,2.52,0,0,1,8.2,17v0l.17.08c.21.12.23.18.09.39,0,.05-.1.11-.1.18,0,.29-.18.4-.39.51s-.16.1-.25,0a.18.18,0,0,0-.29.13c0,.24.08.39.32.35l.17,0a1,1,0,0,0,0,.24c0,.24-.13.53.11.76a.34.34,0,0,1-.08.18.54.54,0,0,1-.18.06c-.16.06-.19.16-.08.31a2,2,0,0,1,.24.27c.1.1.12.19-.06.24a.65.65,0,0,0-.21.16l-.37.39c.06.21,0,.3-.23.4a.71.71,0,0,1-.82,0c0,.23-.08.4-.11.58s0,.27-.11.31c-.24.11-.24.3-.23.49a1.34,1.34,0,0,1-.85.33s-.09.06-.09.09c0,.2-.13.28-.28.32s-.24.15-.19.29a5.24,5.24,0,0,0,.22.58c-.11.05-.22.15-.36.21a.25.25,0,0,1-.36-.26,2,2,0,0,0,0-.43A.29.29,0,0,0,3.81,24a2.32,2.32,0,0,0-1.6,0,.21.21,0,0,0-.18.26,1.71,1.71,0,0,1-.31,1.37.63.63,0,0,0-.09.33c0,.28-.16.52-.47.34a.3.3,0,0,0-.42.08,3.81,3.81,0,0,0-.29.53c-.06.12-.09.23-.24.28s-.12.09-.11.22a1.1,1.1,0,0,1-.06.6c-.1.19,0,.24.11.32s.22.24.35.38.2,0,.24,0a1.24,1.24,0,0,0,.74.34,5.24,5.24,0,0,0,.53.08.28.28,0,0,1,.26.37,1.48,1.48,0,0,0,0,.19,1.88,1.88,0,0,1-.32.91,2.35,2.35,0,0,0-.24.54.31.31,0,0,0,.09.36,1.88,1.88,0,0,1,.31.32,3.8,3.8,0,0,0,.29.38.35.35,0,0,0,.24.12l.74-.12a.35.35,0,0,1,.21,0,2.19,2.19,0,0,1,.25.51,2.61,2.61,0,0,1,0,.49.46.46,0,0,1-.21.45c.07.11.11.22.18.33a.37.37,0,0,1-.26.57,1.54,1.54,0,0,1-.3,0,3.47,3.47,0,0,1,.08.52c0,.22-.07.29-.29.24s-.24,0-.36,0a.17.17,0,0,1,0,.07l.32.11a2.59,2.59,0,0,1-.21.18s-.13.09-.13.14c-.06.39-.35.47-.66.53s-.26.07-.11.28.16.3,0,.45-.06.21,0,.24.25.19.42,0a.21.21,0,0,1,.17,0c.23,0,.44,0,.66,0a.27.27,0,0,0,.11-.05c.21-.13.28-.09.33.15a1.25,1.25,0,0,1-.21,1,.79.79,0,0,0,.06,1,5.78,5.78,0,0,1,.4.64,2.32,2.32,0,0,0,.89.92c.14.06.17,0,.22-.12s.28-.54.42-.82l0,0c.29-.06.23-.29.24-.48a8.66,8.66,0,0,1,.12-.87c.08-.32.25-.42.59-.43.18,0,.24-.08.21-.28a4.52,4.52,0,0,1-.06-.53.55.55,0,0,1,.69-.51s0,0,0,0a.21.21,0,0,0,0-.08.55.55,0,0,1,.27-.6,5.83,5.83,0,0,1,.85-.46,3.28,3.28,0,0,1,.55-.24.35.35,0,0,1,.22,0c.2.05.39-.06.36-.25a.4.4,0,0,1,.2-.42,4.91,4.91,0,0,1,.68-.23s0-.06,0-.09a.29.29,0,0,1,.11-.11A2.91,2.91,0,0,0,10.89,34.09Z"/><path class="cls-1" d="M19.19,32.39a.59.59,0,0,0,.44-.26c.13-.15.15-.38.41-.44.08,0,.13-.18.2-.29s-.25-.22,0-.38l-.51-.22-.23.08c-.11,0-.2.1-.3.14a3.61,3.61,0,0,1-.42.16c-.32.08-.48.21-.53.5a.78.78,0,0,0,.07.26L17.8,32a.89.89,0,0,1,0,.33c-.08.21-.06.32.15.44a.66.66,0,0,1,.88.28,1.15,1.15,0,0,0,.09-.26C18.9,32.57,19,32.39,19.19,32.39Z"/><path class="cls-1" d="M19.83,34.3c-.14.1-.23,0-.32-.07s-.24-.29-.35-.41l-.32.18v.53l.06,0L19,34.4c.18-.21.28-.22.52-.06a1.08,1.08,0,0,0,.28.15.25.25,0,0,0,.2-.06.19.19,0,0,0,0-.15C20,34.27,19.87,34.26,19.83,34.3Z"/><path class="cls-1" d="M14.43,18.73l-.71.24A.46.46,0,0,0,14.43,18.73Z"/><path class="cls-1" d="M.73,23c.09.26.18.55.56.5.08,0,.18.05.26.05a1.09,1.09,0,0,0,.4,0,3.24,3.24,0,0,0,.69-.21.22.22,0,0,0,.08-.4.8.8,0,0,0-.67-.24.41.41,0,0,1-.31-.11c-.14-.21-.24-.43-.4-.71a2,2,0,0,0-.05.36c0,.24-.13.32-.35.27s-.32,0-.52-.05c0,.06,0,.13.07.13C.66,22.66.68,22.81.73,23Z"/><path class="cls-1" d="M29.06,30.4a1.59,1.59,0,0,0-.26.14C28.91,30.69,29,30.67,29.06,30.4Z"/><path class="cls-1" d="M30.71,25.73a1.5,1.5,0,0,1-.4-.2,1.23,1.23,0,0,1-.27-.45c-.05-.09,0-.21.16-.2s.29-.05.27-.29a3.52,3.52,0,0,1-.43.13c-.16.05-.23,0-.26-.16a.21.21,0,0,1,.16-.27c.21-.08.42-.18.64-.28,0,0,0,0,0-.06a1,1,0,0,0-.34.08.58.58,0,0,1-.66.14.18.18,0,0,0-.12,0,2.48,2.48,0,0,0-.55.21s-.05,0-.08,0c-.35.18-.71.36-1.06.5a4.56,4.56,0,0,0-.87.69l-.21.19a.87.87,0,0,1-.5.29s-.05,0-.08,0c-.29.21-.58.42-.87.61a.27.27,0,0,0,0,.45l.18.15a2,2,0,0,1,.35,0c.16,0,.21.13.11.27l0,.05.27.32a1.14,1.14,0,0,0,.1-.3.36.36,0,0,1,.3-.36.38.38,0,0,0,.13-.06c.07,0,.13-.08.19-.11a.35.35,0,0,1,.23-.07c.14.08.29.21.45.29a.23.23,0,0,1,.08.35.5.5,0,0,0-.05.21c0,.12.08.23.1.36a.48.48,0,0,0,.56.43,1.13,1.13,0,0,1,.26,0h.09a.43.43,0,0,0,.25,0,.29.29,0,0,1,.38.19c.07.21.26.31.35.5,0,0,.21.05.23,0a2,2,0,0,1,.8-.63,1.07,1.07,0,0,0,.47-.77,1.44,1.44,0,0,1,.48-.77.48.48,0,0,0,.24-.45c0-.15,0-.29.23-.31a.12.12,0,0,0,.11-.08,1.86,1.86,0,0,0,.15-.51.29.29,0,0,0-.12-.24,6,6,0,0,0-.62-.31C31.28,25.72,31,25.85,30.71,25.73Z"/><path class="cls-1" d="M34.67,24c-.05.14,0,.21.13.19l.45-.06a.7.7,0,0,1,.29,0,2,2,0,0,1,.77.34c.32.22.66.4,1,.59.13.07.28.1.37-.06a.31.31,0,0,0-.11-.44c-.05,0-.06-.06-.1-.09s0,0,0-.05a.71.71,0,0,1,.23.1l-.36-.86a.69.69,0,0,1-.59-.56c0,.11-.1.21-.13.29s-.05,0-.07,0v-.18c-.17.13-.19,0-.22-.08a2.48,2.48,0,0,1-.45.05l-1,.05a.39.39,0,0,0-.37.35C34.72,23.64,34.76,23.74,34.67,24Z"/></g></g></svg>