<?xml version="1.0" encoding="utf-8"?>
<!-- Generator: Adobe Illustrator 24.0.1, SVG Export Plug-In . SVG Version: 6.00 Build 0)  -->
<svg version="1.1" id="Capa_1" xmlns="http://www.w3.org/2000/svg" xmlns:xlink="http://www.w3.org/1999/xlink" x="0px" y="0px"
	 viewBox="0 0 38.7 38.3" style="enable-background:new 0 0 38.7 38.3;" xml:space="preserve">
<style type="text/css">
	.st0{fill:#D9131A;}
	.st1{fill:#FBDB09;}
	.st2{fill:#FBDC09;}
	.st3{fill:#D9121A;}
</style>
<g>
	<path class="st0" d="M35.5,10.6H9.1l0,0l0-0.1v-0.3l0-0.1l0-0.4L9,9.3L8.8,9.1c0,0,0,0,0,0L8.7,9c0,0,0-0.1,0-0.1V8.7l0,0l0-0.1
		c0,0,0,0,0,0l0-0.1V8.3l0-0.1c0-0.1,0-0.1,0.1-0.2l0.1,0c0,0,0.1,0,0.1,0V7.9c0,0,0-0.1,0-0.1L9,7.6c0,0,0-0.1,0.1-0.1l0,0l0.2-0.3
		l0-0.3v0l-0.2,0c0,0,0,0,0,0L9,6.7c0,0,0,0,0,0L8.9,6.6c0,0,0,0-0.1-0.1L8.7,6.5c0,0,0,0,0,0L8.6,6L8.5,5.9H16L16.1,6
		c0,0,0,0,0,0.1l0.1,0.3l0,0.1l0.1,0.2c0,0.1,0.1,0.1,0,0.2l-0.1,0.2c0,0,0.1,0.1,0.1,0.2v0.1c0,0,0,0.1,0,0.1l-0.1,0.1l0,0l0.2,0.2
		c0,0,0.1,0.1,0.1,0.1l0,0.2c0,0.1,0,0.2-0.1,0.2l-0.2,0.2l0,0l0.1,0.2c0,0,0,0.1,0,0.1v0L17,8.9l0.1,0l0.1-0.2c0,0,0.1-0.1,0.2-0.1
		l0.6-0.1l0.2-0.1l0.1-0.3c0,0,0,0,0,0l0-0.1C18.3,8,18.4,8,18.5,8h0.1c0.1,0,0.1,0,0.2,0.1l0,0L18.9,8c0,0,0,0,0,0
		c0.1-0.1,0.2-0.1,0.3,0l0,0c0,0,0,0.1,0,0.1h0l0.6,0.1c0,0,0,0,0.1,0l0.2,0.1l0,0l0.5,0.4l0.2,0l0.2,0c0,0,0,0,0.1,0V8.7
		c0,0,0-0.1,0-0.1l0.1-0.3c0,0,0.1-0.1,0.1-0.1l0.1,0c0.1,0,0.2,0,0.3,0.1l0.1,0.1c0,0,0,0,0,0.1l0.1,0.2l0.1,0.2c0,0,0,0,0,0.1
		c0,0.1-0.1,0.2-0.2,0.3l-0.1,0h-0.1l-0.2,0v0l0.1,0.5l0.1,0.2L22,10h0.1l0.2,0l0.1,0l0.1-0.1l0.2-0.2c0,0,0,0,0,0l0.2-0.2l0.1-0.2
		c0,0,0,0,0-0.1l0-0.1c0,0,0.1-0.1,0.1-0.1l0.2-0.1c0,0,0.1,0,0.1,0l0.4,0.1L24.4,9c0,0,0,0,0,0l0.3,0c0,0,0.1,0,0.1,0l0.3,0.2
		c0,0,0,0,0,0l0.1,0.1l0.5,0.3l0.3,0.1h0.1c0.1,0,0.2,0.1,0.2,0.2l0.1,0.2l0.1,0.1l0.1,0c0.2,0,0.4,0,0.6,0l0.1-0.1c0,0,0.1,0,0.1,0
		h0.2c0,0,0,0,0.1,0l0.3,0.1c0.1,0,0.1,0,0.2,0l0-0.1c0-0.1,0-0.1,0-0.2l0.1-0.1c0,0,0,0,0-0.1l0.4-0.3c0,0,0,0,0,0L29,9.2
		c0,0,0.1,0,0.1,0h0.2l0.4,0l0.1,0L30,9.1l0.3-0.3l0,0l0.2-0.1c0,0,0.1,0,0.1,0l0.2,0h0l0.1,0l0.1,0l0.3-0.2c0.1,0,0.1-0.1,0.2,0
		l0.2,0.1l0.1,0c0,0,0.1,0,0.2,0l0.1,0l0.3,0l0,0l0.1,0c0.1,0,0.1,0.1,0.1,0.1l0.1,0.2l0.2,0.1L33,9l0.2,0l0.2,0l0.4-0.1
		c0,0,0,0,0.1,0c0.1,0,0.2,0.1,0.2,0.3l0,0.2c0,0,0,0,0,0l-0.1,0.3l0,0.2V10l0.1,0.1l0,0h0.4c0.1,0,0.1,0,0.2,0.1v0c0,0,0.1,0,0.1,0
		l0.1,0c0,0,0.1,0,0.1,0l0.3,0.2C35.5,10.5,35.5,10.6,35.5,10.6z"/>
	<path class="st1" d="M34.2,16.7l-0.1,0.1l-0.3,0.4c0,0,0,0,0,0c0,0.1-0.1,0.1-0.2,0.1l-0.3,0l-0.3,0.2L33,17.8
		c0,0.1-0.1,0.1-0.1,0.1l-0.3,0.2l-0.9,0.7l-0.2,0.3c0,0-0.1,0.1-0.1,0.1l-0.3,0.1l-0.5,0.1l-0.1,0l-0.1,0.1l0,0.1
		c0,0.1-0.1,0.1-0.2,0.1l-0.1,0h0L30.1,20c0,0-0.1,0.1-0.1,0.1l-1.3,0.5L28,20.9l-1.2,0.5c-7,0-14.1,0-21.1,0L6,21.2v0l-0.1-0.2
		c0,0,0,0,0,0c0,0,0,0,0,0v-0.1l-0.1,0H5.7l-0.3,0c0,0,0,0-0.1,0l-0.1,0c0,0-0.1,0-0.1-0.1l0-0.1c0,0,0,0,0,0l-0.1-0.1c0,0,0,0,0,0
		L5,20l-0.1-0.3c0,0,0,0,0-0.1l0-0.2c0-0.1,0-0.1,0-0.2L5,19c0,0,0,0,0,0l0.2-0.2l0.1-0.2l0,0l0.1-0.1c0,0,0,0,0.1,0
		c0,0,0-0.1,0-0.1l0.1-0.1c0,0,0,0,0.1,0l0.1-0.1c0,0,0,0,0.1,0L6.3,18l0,0l0.3-0.5c0,0,0,0,0,0l0.1-0.1c0,0,0.1-0.1,0.1-0.1l0.1,0
		l0.2,0l0,0l0-0.1L7.2,17c0,0,0-0.1,0.1-0.1l0.2-0.1l0.1-0.1C16.4,16.7,25.3,16.7,34.2,16.7z"/>
	<path class="st0" d="M14.1,27.5L14,27.6l0,0.1c0,0,0,0,0,0l0,0.1c0,0-0.1,0.1-0.1,0.1l-0.1,0c-0.1,0-0.2,0-0.2,0l-0.2-0.1l-0.4,0
		l-0.4,0.1L12.2,28l0,0l-0.2,0.1l-1.1,1.1L10.3,30c0,0,0,0,0,0l-1.1,1.1l-0.1,0.2l0,0v0c0-0.1,0.1-0.1,0.2-0.1l0.2,0
		c0,0,0.1,0,0.1,0l0.1,0.1c0,0,0,0,0.1,0l0.1,0.1l0,0l0.2,0.3l0,0l0.2,0.1c0,0,0.1,0,0.1,0l0.2,0.1c0.1,0,0.2,0.1,0.2,0.2v0.1
		c-2.5,0-5,0-7.5,0c0,0,0,0,0-0.1l0-0.2c0-0.1,0-0.2,0.1-0.2l0,0l0,0l0,0l0.5-0.3L4,31.2c0,0,0,0,0-0.1L4.2,31l0-0.1l-0.1-0.3
		c0,0,0,0,0-0.1l0-0.2l-0.1-0.2c0,0,0-0.1,0-0.1l0-0.1v0l0.1-0.3c0,0,0,0,0,0l0-0.1l0.1-0.2L4.4,29l0-0.2l-0.1-0.4l-0.1-0.1
		l-0.1-0.1c0,0,0,0,0,0l-0.2-0.1c0,0,0,0-0.1-0.1c0,0,0,0,0,0l-0.2-0.5H14.1z"/>
	<path class="st2" d="M16.2,6.5H8.7c0,0,0,0,0,0L8.6,6L8.5,5.9L8.4,5.7L8.3,5.7C8.3,5.6,8.2,5.5,8.3,5.4V5.3l0-0.1L8.2,5.1L8.1,5
		C8,5,8,4.9,8,4.9s0-0.1,0-0.2l0.1-0.2l0,0C8,4.5,8,4.4,8,4.3L8.2,4l0-0.2V3.7l0-0.2c0-0.1,0.1-0.1,0.1-0.2l0.2-0.1c0,0,0,0,0.1,0
		l0.3,0h0.2c0,0,0.1,0,0.1,0l0.3,0.2l0.1,0l0.2,0c0,0,0.1,0,0.1,0l0.2,0c0,0,0,0,0,0l0.4,0.3l0.3,0.1c0,0,0,0,0.1,0l0.1,0.1L11.1,4
		l0.2-0.1c0.1,0,0.1,0,0.2,0l0.1,0c0,0,0,0,0,0l0.2,0.1l0.8,0l0,0l0.2,0.1c0,0,0.1,0,0.1,0.1l0.2,0.2c0,0,0,0,0,0.1l0.1,0.2
		c0,0,0,0,0,0l0.1,0.2l0.1,0.1l0.1,0.1L13.8,5c0,0,0,0,0.1,0h1.3l0.2,0.1c0.1,0,0.2,0.2,0.1,0.3l0,0l0.1,0.1c0,0,0.1,0,0.1,0.1
		l0.2,0.3L16,5.9L16.1,6c0,0,0,0,0,0.1L16.2,6.5z"/>
	<path class="st2" d="M35.5,10.6L35.5,10.6l-0.2,0.5l0,0.1l0,0.2c0,0,0,0,0,0.1l-0.1,0.1c0,0,0,0-0.1,0.1l0,0l0,0.1
		c0,0.1-0.2,0.2-0.3,0.1l-0.1,0l-0.3,0.1c0,0-0.1,0-0.1,0l-0.3-0.1c0,0-0.1,0-0.1-0.1l-0.1,0.1l-0.1,0.2l0,0.8l0,0.2l0.1,0.1
		l0.3,0.2c0,0,0,0,0.1,0l0.2,0.3l0,0.1l0.2,0.3c0,0,0,0.1,0,0.1v0.1H8.3l0.1-0.5c0,0,0,0,0,0c0-0.1,0-0.1,0.1-0.1l0,0l0,0L8.7,13
		l0-0.2v-0.1l0.1-0.4l0.1-0.4v0l0-0.1c0,0,0,0,0,0L9,11.6l0.1-0.2v0l0-0.3v-0.3l0-0.1l0,0l0-0.1v-0.3l0-0.1c5.9,0,11.7,0,17.6,0
		c0.2,0,0.4,0,0.6,0c0.3,0,0.5,0,0.8,0c0.1,0,0.1,0,0.2,0c2,0,3.9,0,5.9,0h0.4c0.1,0,0.1,0,0.2,0.1v0c0,0,0.1,0,0.1,0l0.1,0
		c0,0,0.1,0,0.1,0l0.3,0.2C35.5,10.5,35.5,10.6,35.5,10.6z"/>
	<path class="st3" d="M34.7,15.5l0,0.3c0,0,0,0.1,0,0.1l-0.3,0.4l-0.1,0.3c0,0,0,0,0,0.1l0,0l-0.1,0.1l-0.3,0.4c0,0,0,0,0,0
		c-9,0-17.9,0-26.9,0l0.2,0l0,0l0-0.1L7.2,17c0,0,0-0.1,0.1-0.1l0.2-0.1l0.1-0.1l0,0l0-0.4l0,0h0c0,0,0,0-0.1,0l-0.1-0.1
		c0,0-0.1-0.1-0.1-0.2v-0.1c0,0,0-0.1,0-0.1l0.1-0.2c0,0,0,0,0.1-0.1l0.2-0.1c0,0,0,0,0.1,0h0l0,0l0-0.1c0,0,0,0,0-0.1L8,15
		c0,0,0.1,0,0.1,0l0,0l0,0l0-0.1l0-0.1c0,0,0-0.1,0-0.1l0.1-0.3l0-0.1l0.1-0.5c0,0,0,0,0,0h25.8l0.2,0.3c0,0,0,0.1,0,0.1v0.2
		c0,0.1,0,0.1-0.1,0.2l-0.1,0.1l0,0.1l0.1,0.5v0.1l0.1,0.1c0,0,0,0,0,0l0.1,0.1C34.7,15.4,34.7,15.4,34.7,15.5z"/>
	<path class="st3" d="M28,20.9l-1.2,0.5l-0.2,0.1l-0.2,0.2c0,0,0,0,0,0l-0.6,0.4l0,0l-0.7,0.3l-0.3,0.2L24.6,23l-0.5,0.8l0,0
		l-0.3,0.4c0,0,0,0,0,0l-0.1,0.1l-0.2,0.2l0,0L22.9,25H18c-4.3,0-8.6,0-12.9,0l0-0.2c0,0,0-0.1,0-0.1l0.1-0.2l0.1-0.3l0-0.1l0-0.1
		l-0.1-0.1L5,23.7c-0.1,0-0.1-0.1-0.1-0.2l-0.1-0.3c0-0.1,0-0.1,0.1-0.2L5,22.9l0.1-0.3l0-0.2l0-0.2c0,0,0,0,0-0.1l0-0.1
		c0,0,0-0.1,0.1-0.1l0.1-0.1c0,0,0,0,0.1,0l0.3-0.1l0.1-0.1c0,0,0,0,0,0l0-0.1l0,0L6,21.2v0l-0.1-0.2c0,0,0,0,0,0H28z"/>
	<path class="st2" d="M23.6,24.5l-0.2,0.2l0,0L22.9,25l-0.2,0.1c0,0,0,0,0,0l-0.4,0.1h0l-0.7,0.1l-0.6,0.2l-0.2,0.1c0,0,0,0,0,0
		l-0.1,0c0,0,0,0-0.1,0h-0.3l-2,0.6h0l-0.8,0.1l-2.5,0.9h0l-0.7,0.2l-0.1,0.2L14,27.6l0,0.1c0,0,0,0,0,0l0,0.1c0,0-0.1,0.1-0.1,0.1
		l-0.1,0c-0.1,0-0.2,0-0.2,0l-0.2-0.1l-0.4,0l-0.4,0.1L12.2,28l0,0H3.9c0,0,0,0,0,0l-0.2-0.5v0l0,0c0,0,0,0,0-0.1l0-0.1v-0.1
		c0,0,0,0,0,0l0-0.2c0,0,0,0,0-0.1l0-0.1c0-0.1,0.1-0.1,0.1-0.1l0.1,0c0,0,0,0,0.1,0l0.1,0l0.1-0.1c0,0,0.1-0.1,0.1-0.1l0.2,0
		l0.1-0.1l0,0L4.7,26l0-0.2c0,0,0,0,0-0.1l0.1-0.2c0,0,0.1-0.1,0.1-0.1l0.3-0.1l0-0.2l0-0.1l0-0.2c0,0,0-0.1,0-0.1l0.1-0.2H23.6z"/>
	<path class="st2" d="M10.7,31.9l-0.2-0.1c0,0-0.1,0-0.1,0l-0.2-0.1l0,0c-2.2,0-4.5,0-6.7,0l0,0l0,0l0,0c-0.1,0.1-0.1,0.1-0.1,0.2
		l0,0.2c0,0,0,0,0,0.1c0,0,0.1,0.1,0.1,0.1l0.3,0.1c0,0,0.1,0,0.1,0l0,0l0,0.1c0,0,0,0,0,0.1l0.1,0.1c0,0,0,0,0.1,0.1l0.2,0.1l0,0
		l0,0.1c0,0,0,0.1,0,0.1v0.1c0,0,0,0.1,0,0.1l0.1,0.2c0,0,0,0,0.1,0.1l0.1,0.1c0,0,0,0,0,0l0.2,0.1c0,0,0,0,0,0L5.6,34l0.3,0.1
		l0.1,0.1v0c0,0,0,0.1,0,0.1l0,0.1c0,0,0,0,0,0l0.1,0.1l0,0l0.1,0.1c0,0,0,0,0.1,0L6.9,35l0,0C6.9,35,7,35.1,7,35.1h0
		c0.1,0,0.1-0.1,0.2-0.1l0.2-0.6l0.1-0.1l0.2,0.4c0,0.1,0.1,0.1,0.2,0.1l0.3,0c0,0,0,0,0,0l0.3-0.1c0,0,0,0,0.1,0L9,34.3
		c0,0,0,0,0.1,0l0.5-0.8l0.2-0.2l0.6-0.2c0.1,0,0.1,0,0.1-0.1l0.2-0.4c0,0,0-0.1,0-0.1v-0.3C10.8,32.1,10.7,32,10.7,31.9z M8.6,33.8
		l-0.1,0.1l-0.1-0.1c0,0-0.1,0-0.1,0H8.1l0.6-0.2h0.1L8.6,33.8z"/>
</g>
</svg>
