<?xml version="1.0" encoding="utf-8"?>
<!-- Generator: Adobe Illustrator 27.5.0, SVG Export Plug-In . SVG Version: 6.00 Build 0)  -->
<svg version="1.1" id="Capa_1" xmlns="http://www.w3.org/2000/svg" xmlns:xlink="http://www.w3.org/1999/xlink" x="0px" y="0px"
	 viewBox="0 0 38.7 38.3" style="enable-background:new 0 0 38.7 38.3;" xml:space="preserve">
<style type="text/css">
	.st0{fill:#212121;}
</style>
<g>
	<path class="st0" d="M35.4,10.4l-0.3-0.2H35h-0.1h-0.1l0,0c0-0.1-0.1-0.1-0.2-0.1l0,0h-0.3l0,0l0,0L34.1,10V9.8V9.6l0.1-0.3l0,0
		V9.1c0-0.1-0.1-0.2-0.2-0.3c0,0,0,0-0.1,0l-0.4,0.1h-0.2L33,9h-0.1l-0.2-0.1l-0.1-0.2c0-0.1-0.1-0.1-0.1-0.1h-0.1l0,0h-0.3H32
		c-0.1,0-0.1,0-0.2,0h-0.1l-0.2-0.1c-0.1,0-0.1,0-0.2,0L31,8.6h-0.1h-0.1l0,0h-0.2h-0.1l-0.2,0.1l0,0L30,9.1l-0.1,0.1h-0.1h-0.4
		h-0.2h-0.1l-0.2,0.1l0,0l-0.4,0.3c0,0,0,0,0,0.1l-0.1,0.1c0,0.1,0,0.1,0,0.2v0.1l0,0h-0.1h-0.1L27.8,10c0,0,0,0-0.1,0h-0.2h-0.1
		l-0.1,0.1l-0.1,0.1l-0.1,0.1L27,10.2c0,0,0,0-0.1,0h-0.1l-0.1-0.1h-0.1L26.5,10l-0.1-0.2c0-0.1-0.1-0.2-0.2-0.2h-0.1l-0.3-0.1
		l-0.5-0.3l-0.1-0.1l0,0L24.9,9h-0.1h-0.3l0,0l-0.6,0.2l-0.4-0.1h-0.1l-0.2,0.1c0,0-0.1,0-0.1,0.1v0.1c0,0,0,0,0,0.1L23,9.7
		l-0.2,0.2l0,0l-0.2,0.2L22.4,10h-0.1h-0.2H22l-0.2-0.2l-0.1-0.2l-0.1-0.5l0,0h0.2h0.1H22c0.1,0,0.2-0.1,0.2-0.3V8.7l-0.1-0.2
		L22,8.4c0,0,0,0,0-0.1l-0.1-0.1c-0.1-0.1-0.2-0.1-0.3-0.1h-0.1l-0.1,0.1l-0.1,0.3v0.1v0.1c0,0,0,0-0.1,0H21h-0.2l-0.5-0.4l0,0
		L20,8.2c0,0,0,0-0.1,0l-0.6-0.1l0,0V8l0,0c-0.1-0.1-0.2-0.1-0.3,0l0,0l-0.1,0.1l0,0C18.7,8,18.6,8,18.5,8h-0.1
		c-0.1,0-0.2,0.1-0.2,0.1v0.1l0,0l-0.1,0.3l-0.2,0.1l-0.6,0.1c-0.1,0-0.1,0-0.2,0.1L17,9h-0.1l-0.5-0.1l0,0V8.8l-0.1-0.2l0,0
		l0.2-0.2c0.1,0,0.1-0.1,0.1-0.2V8c0-0.1,0-0.1-0.1-0.1l-0.2-0.2l0,0l0.1-0.1V7.5V7.3c0-0.1,0-0.1-0.1-0.2l0.1-0.2
		c0-0.1,0-0.2,0-0.2l-0.1-0.2V6.4l-0.1-0.3c0,0,0,0,0-0.1L16,5.9l-0.1-0.1l-0.2-0.3c0,0,0-0.1-0.1-0.1l-0.1-0.1l0,0
		c0-0.1,0-0.2-0.1-0.3h-0.2h-1.3c0,0,0,0-0.1,0l-0.3,0.1L13.4,5l-0.1-0.1l-0.1-0.2l0,0l-0.1-0.2c0,0,0,0,0-0.1l-0.2-0.2
		c0,0-0.1,0-0.1-0.1L12.6,4l0,0h-0.8l-0.2,0l0,0h-0.1c-0.1,0-0.2,0-0.2,0h-0.2L11,3.9l-0.1-0.1c0,0,0,0-0.1,0l-0.3-0.1l-0.4-0.3l0,0
		H9.9c0,0,0,0-0.1,0H9.6H9.5L9.2,3.2H9.1H8.9H8.6H8.5L8.3,3.3c-0.1,0-0.1,0.1-0.1,0.2v0.2v0.1V4L8,4.3c0,0.1,0,0.2,0,0.2l0,0v0.2
		c0,0.1,0,0.1,0,0.2S8,5,8.1,5h0.1l0.1,0.1v0.1v0.1c0,0.1,0,0.2,0.1,0.3l0.1,0.1l0.1,0.2l0,0.1l0.1,0.4l0,0l0.1,0.1c0,0,0,0,0.1,0.1
		L9,6.7l0,0h0.1l0,0h0.2l0,0V7L9.1,7.5l0,0c0,0,0,0.1-0.1,0.1L8.9,7.8v0.1V8H8.8H8.7c0,0-0.1,0.1-0.1,0.2v0.1v0.1v0.1l0,0v0.1l0,0
		v0.1v0.1L8.8,9l0,0L9,9.3l0.1,0.4v0.4v0.1v0.3v0.1l0,0v0.1V11v0.3l0,0L9,11.6l-0.1,0.2l0,0v0.1l0,0l-0.1,0.4l-0.1,0.4v0.1V13
		l-0.1,0.5l0,0l0,0c-0.1,0-0.1,0.1-0.1,0.1l0,0l-0.1,0.5v0.1l-0.1,0.3v0.1v0.1v0.1l0,0l0,0C8,15,8,15,8,15l-0.1,0.1c0,0,0,0,0,0.1
		v0.1l0,0l0,0c0,0,0,0-0.1,0l-0.2,0.1c0,0,0,0-0.1,0.1l-0.1,0.2v0.1v0.1c0,0.1,0,0.1,0.1,0.2l0.1,0.1c0,0,0,0,0.1,0l0,0l0,0v0.4l0,0
		l-0.1,0.1l-0.2,0.1c0,0-0.1,0-0.1,0.1L7.2,17v0.1l0,0H7H6.9c0,0-0.1,0-0.1,0.1l-0.1,0.1l0,0L6.3,18l0,0L6,18.1c0,0,0,0-0.1,0
		l-0.1,0.1H5.7l-0.1,0.1v0.1c0,0,0,0-0.1,0l-0.1,0.1l0,0l-0.1,0.2L5.1,19l0,0l-0.2,0.2c0,0,0,0.1,0,0.2v0.2c0,0,0,0,0,0.1L5,20v0.3
		l0,0l0.1,0.1l0,0v0.1l0.1,0.1h0.1c0,0,0,0,0.1,0h0.3h0.1h0.1v0.1l0,0l0,0L6,21.1l0,0l-0.2,0.3l0,0v0.1l0,0l-0.1,0.1l-0.3,0.1
		c0,0,0,0-0.1,0l-0.1,0.1l-0.1,0.1V22v0.1v0.2v0.2L5,22.9l-0.1,0.2c0,0.1-0.1,0.1-0.1,0.2l0.1,0.3c0,0.1,0.1,0.2,0.1,0.2l0.2,0.1
		L5.3,24v0.1v0.1l-0.1,0.3l-0.1,0.2v0.1V25v0.1v0.2l-0.3,0.1l-0.1,0.1l-0.1,0.2c0,0,0,0,0,0.1V26l-0.1,0.2l0,0l-0.1,0.1H4.2
		c0,0-0.1,0-0.1,0.1L4,26.5H3.9c0,0,0,0-0.1,0H3.7l-0.1,0.1v0.1c0,0,0,0,0,0.1V27l0,0v0.1v0.1v0.1l0,0l0,0L3.9,28l0,0
		c0,0,0,0.1,0.1,0.1l0.2,0.1l0,0l0.1,0.1l0.1,0.1l0.1,0.4V29l-0.1,0.2l-0.1,0.2v0.1l0,0l-0.1,0.3l0,0v0.1V30l0.1,0.2v0.2
		c0,0,0,0,0,0.1l0.1,0.3v0.1L4,31.2c0,0,0,0,0,0.1l-0.1,0.1l-0.5,0.3l0,0l0,0l0,0c-0.1,0.1-0.1,0.1-0.1,0.2v0.2c0,0,0,0,0,0.1
		l0.1,0.1l0.3,0.1h0.1l0,0v0.1c0,0,0,0,0,0.1l0.1,0.1c0,0,0,0,0.1,0.1l0.2,0.1l0,0V33v0.1v0.1v0.1l0.1,0.2c0,0,0,0,0.1,0.1l0.1,0.1
		l0,0l0.2,0.1l0,0L5.6,34l0.3,0.1L6,34.2l0,0v0.1v0.1l0,0l0.1,0.1l0,0l0.1,0.1c0,0,0,0,0.1,0L6.9,35l0,0L7,35.1l0,0
		c0.1,0,0.1-0.1,0.2-0.1l0.2-0.6l0.1-0.1l0.2,0.4c0,0.1,0.1,0.1,0.2,0.1h0.3l0,0l0.3-0.1c0,0,0,0,0.1,0L9,34.3c0,0,0,0,0.1,0
		l0.5-0.8l0.2-0.2l0.6-0.2c0.1,0,0.1,0,0.1-0.1l0.2-0.4v-0.1v-0.3c0-0.1-0.1-0.2-0.2-0.2l-0.2-0.1h-0.1L10,31.8l0,0l0-0.4l0,0
		l-0.1-0.1c0,0,0,0-0.1,0l-0.1-0.1c0,0,0,0-0.1,0H9.4c-0.1,0-0.2,0-0.2,0.1l0,0l0,0l0.1-0.2l1.1-1.1l0,0l0.5-0.7l1.1-1.1l0.2-0.1
		l0,0l0.4-0.2l0.4-0.1h0.4l0.2,0.1c0.1,0,0.1,0.1,0.2,0h0.1c0,0,0.1,0,0.1-0.1v-0.1l0,0v-0.1l0.1-0.1l0.1-0.2l0.7-0.2l0,0l2.5-0.9
		l0.8-0.1l0,0l2-0.6h0.3c0,0,0,0,0.1,0h0.1l0,0l0.2-0.1l0.6-0.2l0.7-0.1l0,0l0.4-0.1l0,0l0.2-0.1l0.5-0.3l0,0l0.2-0.2l0.1-0.1l0,0
		l0.3-0.4l0,0l0.5-0.8l0.3-0.3l0.3-0.2l0.7-0.3l0,0l0.6-0.4l0,0l0.2-0.2l0.2-0.1l1.2-0.5l0.6-0.3l1.3-0.5l0.1-0.1L30,20l0,0h0.1
		c0.1,0,0.1-0.1,0.2-0.1v-0.1l0.1-0.1h0.1l0.5-0.1l0.3-0.1c0,0,0.1,0,0.1-0.1l0.2-0.3l0.9-0.7l0.3-0.2c0.1,0,0.1-0.1,0.1-0.1
		l0.1-0.3l0.3-0.2h0.3c0.1,0,0.1,0,0.2-0.1l0,0l0.3-0.4l0.1-0.1l0,0c0,0,0,0,0-0.1l0.1-0.3l0.3-0.4v-0.1v-0.3c0-0.1,0-0.1,0-0.2
		l-0.1-0.1l0,0l-0.1-0.1V15l-0.1-0.5v-0.1l0.1-0.1c0,0,0.1-0.1,0.1-0.2v-0.2v-0.1l-0.2-0.3v-0.1L34,13.3c0,0,0,0-0.1,0l-0.3-0.2
		L33.5,13v-0.2V12l0.1-0.2l0.1-0.1c0,0,0,0,0.1,0.1l0.3,0.1h0.1l0.3-0.1h0.1c0.1,0,0.2,0,0.3-0.1v-0.1l0,0c0,0,0,0,0.1-0.1l0.1-0.1
		c0,0,0,0,0-0.1v-0.2V11l0.2-0.5l0,0C35.5,10.6,35.5,10.5,35.4,10.4z M8.6,33.8l-0.1,0.1l-0.1-0.1H8.3H8.1l0.6-0.2h0.1L8.6,33.8z"/>
</g>
</svg>
