<?xml version="1.0" encoding="utf-8"?>
<!-- Generator: Adobe Illustrator 24.0.1, SVG Export Plug-In . SVG Version: 6.00 Build 0)  -->
<svg version="1.1" xmlns="http://www.w3.org/2000/svg" xmlns:xlink="http://www.w3.org/1999/xlink" x="0px" y="0px"
	 viewBox="0 0 437.7 106.1" style="enable-background:new 0 0 437.7 106.1;" xml:space="preserve">
<style type="text/css">
	.st0{display:none;}
	.st1{display:inline;}
	.st2{fill:#212121;}
	.st3{fill:#FF437B;}
	.st4{fill:#00CED1;}
	.st5{fill:#FFA500;}
	.st6{fill:#FFD700;}
</style>
<g id="Capa_1" class="st0">
	<g id="Capa_1_1_">
		<g id="Capa_2_00000005949876875261572670000007746570995819614859_" class="st1">
			<g id="Capa_1-2">
				<polygon class="st2" points="91.1,66.1 91.1,65.9 91.1,65.9 				"/>
				<polygon class="st2" points="91.1,35.9 91.1,35.7 91.1,35.7 				"/>
				<path class="st2" d="M136.8,70v-2.4l0,0v-1.5l0,0V41.2c-0.3-8.1-4.3-14-12-17.9l0,0l0,0c-3.5-1.8-7.7-3.1-11.8-3.8
					c-3.7-0.6-7.3-1.1-11-1.2h-0.7c-1.7,0-3.7-0.1-5.6-0.1h-4.6v17.4h12v-9.1c11.8,1.1,19,4.7,21,11.1l0.2,0.8
					c0,0.4,0.2,0.6,0.2,0.9s0.2,0.6,0.2,0.9c0,0.6,0.2,1.3,0.2,1.9v24l0,0v13.1c-12.4-1-19.6-4.8-21.5-11.7H91.1v20.1h12v-5.1
					c3.5,1.8,7.7,3.1,11.8,3.8c3.7,0.7,7.3,1.1,11,1.2c2.1,0.1,4.2,0.1,6.4,0.1h4.5v-5.9V70z"/>
				<polygon class="st2" points="292.1,35.7 292.1,35.7 292.1,35.9 				"/>
				<path class="st2" d="M292.1,67.5h-12.5c-1.9,6.8-9,10.6-21.2,11.6v-13l0,0V42.2c0-0.7,0-1.3,0.2-1.9c0-0.2,0-0.6,0.2-0.9
					c0.2-0.4,0.2-0.6,0.2-0.9l0.3-0.8c2.1-6.4,9.2-10,21.2-11.1v9.1h12V18.3h-4.9c-1.9,0-3.8,0-5.6,0.1h-0.7
					c-3.7,0.2-7.5,0.6-11,1.3c-4.2,0.7-8.3,2-11.8,3.8l0,0l0,0c-7.7,3.9-11.7,9.8-12,17.9v24.8l0,0v1.4l0,0v14.1v5.9h4.5
					c2.3,0,4.3,0,6.4-0.1c3.7-0.1,7.3-0.6,11-1.2c4.2-0.7,8.3-2,11.8-3.8v5.2h12L292.1,67.5L292.1,67.5z"/>
				<path class="st2" d="M510.5,26.3c3.3,0,5.9-1.8,5.9-4l0,0v-0.2c-0.2-2.2-3-3.9-6.3-3.8c-3,0.1-5.4,1.8-5.6,3.8v0.1
					C504.6,24.5,507.2,26.3,510.5,26.3z"/>
				<rect x="504.6" y="31.1" class="st2" width="11.8" height="56.7"/>
				<path class="st2" d="M413.1,38.4L413.1,38.4L413.1,38.4L413.1,38.4v-6c0-0.2,0-0.5,0-0.7c0.3-3.5,3-5.3,8-5.3H447v-8.1h-25
					c-3,0-5.9,0.2-8.9,0.7c-7.5,1.4-11.5,4.9-11.8,10.5c0,0.4,0,0.6,0,0.9v57.4h12L413.1,38.4z"/>
				<path class="st2" d="M240.5,75.5V31.1h-33.9c0.5-3.2,3.1-4.7,8-4.7h21.7v-8.1h-20.9c-13.9,0-20.9,4.1-20.9,12.1v8.9h33.9v34.3
					c0,4-2.8,6-8,6h-21.7v8.1h20.9C233.5,87.6,240.5,83.6,240.5,75.5z"/>
				<path class="st2" d="M343.8,67.8c0,0,0-0.1,0-0.2c0-0.6,0.2-1.2,0.2-1.8V41.1c0-0.9,0-1.9-0.2-2.7v-0.1
					c-0.5-6.6-2.8-11.6-6.4-14.9l0,0l0,0c-1.7-1.6-4-2.9-6.4-3.8c-1.9-0.6-4-1.1-6.1-1.2h-0.2c-0.2,0-0.2,0-0.3,0h-6.6
					c-0.2,0-0.2,0-0.3,0h-0.2c-2.1,0.2-4.2,0.6-6.1,1.3c-2.6,0.8-4.7,2.1-6.4,3.8l0,0l0,0l0,0c-3.7,3.4-5.7,8.4-6.4,14.9v0.1
					c0,0.6,0,1.2-0.2,1.8v3.5c0,0.9,0,23.1,0.2,24c0,0,0,0.1,0,0.2c0.5,6.6,2.8,11.6,6.4,14.9l0,0v-0.1c1.7,1.6,3.8,2.9,6.4,3.8
					c1.9,0.6,4,1.1,6.1,1.3h0.2c0.2,0,0.2,0,0.3,0h0.7h5.4c0.2,0,0.3,0,0.7,0c0.2,0,0.2,0,0.3,0h0.2c2.1-0.2,4.2-0.6,6.1-1.3
					c2.6-0.8,4.7-2.1,6.4-3.8v-0.1v0.1l0,0C341,79.3,343.2,74.4,343.8,67.8z M321.1,79.6L321.1,79.6c-0.5,0-0.9,0-1.4-0.1
					c-0.9-0.1-1.7-0.4-2.4-0.6c-0.9-0.5-1.7-0.9-2.4-1.5c-1-0.9-1.9-2-2.4-3.2c-1.2-2.2-1.9-4.5-2.3-6.8c0-0.2,0-0.6-0.2-0.9
					c0-0.2,0-0.6,0-0.9c0-0.6,0-22.5,0-23.2v-1.5v-0.7c0-0.4,0.2-1.9,0.2-1.9c0.3-2.2,1-4.6,2.3-6.7c0.5-1.2,1.4-2.2,2.4-3.2
					c0.7-0.6,1.6-1.2,2.4-1.5c0.7-0.4,1.6-0.5,2.4-0.6c0.3,0,0.9-0.1,1.2-0.1h0.2c0.3,0,0.7,0,1,0.1c0.9,0.1,1.7,0.2,2.4,0.6
					c0.9,0.4,1.7,0.9,2.4,1.5c1,0.9,1.9,2,2.4,3.1c1.2,2.2,1.9,4.6,2.3,6.9c0,0,0,0,0,0.1c0,0.2,0,0.6,0,0.9s0,0.6,0.2,0.9
					c0,0.6,0,1.3,0,1.9v22.7c0,0.2,0,0.5,0,0.7c0,0.2,0,0.6,0,0.9c0,0.4,0,0.6-0.2,0.9c-0.3,2.4-1,4.7-2.3,6.9
					c-0.5,1.1-1.4,2.1-2.4,3.1c-0.7,0.6-1.6,1.2-2.4,1.5c-0.7,0.4-1.6,0.6-2.4,0.6C321.8,79.6,321.5,79.6,321.1,79.6L321.1,79.6z"/>
				<polygon class="st2" points="465,39.3 498.7,39.3 498.7,35.7 498.7,31.1 465,31.1 465,26.3 498.7,26.3 498.7,18.1 465,18.1 
					465,18.1 453,18.1 453,18.1 453,18.1 453,26.3 453,26.3 453,31.1 453,31.1 453,31.1 453,35.7 453,35.7 453,39.3 453,39.3 
					453,79.6 453,79.6 453,87.8 498.7,87.8 498.7,79.6 465,79.6 				"/>
				<polygon class="st2" points="154.9,39.3 188.6,39.3 188.6,35.7 188.6,31.1 154.9,31.1 154.9,26.3 188.6,26.3 188.6,18.1 
					154.9,18.1 154.9,18.1 142.9,18.1 142.9,18.1 142.9,18.1 142.9,26.3 142.9,26.3 142.9,31.1 142.9,31.1 142.9,35.7 142.9,39.3 
					142.9,39.3 142.9,79.6 142.9,79.6 142.9,87.8 188.6,87.8 188.6,79.6 154.9,79.6 				"/>
				<path class="st2" d="M395.2,78.2V25.1c0-4.6-4-6.9-12-6.9h-3.1h-0.5c-0.9,0.1-1.7,0.4-2.4,0.7l0,0c-1.4,0.6-2.3,1.4-2.8,2.5
					l-4.9,9.9l-8,37.4V18.3h-12v60.1c0,3.2,0.9,5.4,2.4,6.9c1.6,1.5,5,2.5,9.4,2.5h21.9c4.5,0,7.8-0.8,9.6-2.5
					C394.4,83.9,395.2,81.5,395.2,78.2z M369.5,79.6c-1.9,0.1-3.8-0.1-5.6-0.6l15.9-54.5c0.3-0.4,0.9-0.6,1.6-0.6
					c1.4,0,2.1,0.6,2.1,1.8v49.9c0.3,1.3-0.5,2.7-2.3,3.4c-1.9,0.6-3.8,0.7-5.9,0.7L369.5,79.6z"/>
				<path class="st2" d="M568.1,42.2c0-3.2-1.4-5.5-4.3-7.1c3-1.1,4.3-3.4,4.3-6.9V18.1h-12V27c0.2,1.3-0.7,2.6-2.3,3.4
					c-1.7,0.5-3.8,0.7-5.7,0.7h-5.7c-1.9,0.1-4-0.1-5.7-0.7c-1.6-0.7-2.4-2.1-2.3-3.4v-8.9h-12v10.1c0,3.6,1.4,6,4.3,6.9
					c-2.8,1.2-4.3,3.4-4.3,6.9v45.5h12V43.3c-0.2-1.3,0.5-2.6,2.3-3.4c1.7-0.5,3.8-0.7,5.7-0.6h5.9c1.9-0.1,3.8,0.1,5.7,0.6
					c1.6,0.7,2.4,2,2.3,3.4v44.5h12L568.1,42.2z"/>
			</g>
		</g>
	</g>
</g>
<g id="Capa_2">
	<g>
		<path class="st2" d="M423.6,86.4c-1.8-1.6-3.7-2.4-6.1-2.4c-2.4,0-4.5,0.8-6.1,2.4c-1.5,1.3-2.3,3.1-2.5,5l-5.4-1.2
			c-1.5-2.2-2.9-4.5-4.1-7l-11.1-23L419.8,17l-7.4-7.4L401.5,17h-5.7l-52,71.2l1.3-3l-2.6,1.3V17l-7.4-7.4L332.9,86l6.1-1.7v3.9
			l-7.1,3.6V78.7l-7.4-7.4l-7.1,7.4h-46.7V17l-7.4-7.4L260,91.9l7.4,7.4H332v-7.1l7.1,7.1h20.8l25.6-35.1l8.6,18l3.7,4.8
			c1.5,2.9,2.8,5.3,4.1,7.1c1.6,2.3,3.5,4,5.8,5.3c2.3,1.3,5.2,1.9,8.7,1.9c2.7,0,5-0.8,6.9-2.6c1.9-1.8,2.9-3.9,2.9-6.3
			C426.2,90,425.3,88,423.6,86.4z"/>
		<path class="st2" d="M216.1,9.4l-1.1,1.5l-0.4-0.3l0.2,0.5l-4.2,5.7h-8.8l-16.2,33.5l-28.8,38.6V16.8l-7.4-7.4l-0.3,7.4h-11.8
			L93.7,87.9V16.8l-7.4-7.4l-4.6,4.1l3,3.3H74.2L31.1,87.1l-0.1-0.3l-14.7,5.1l7.4,7.4h23l37.7-61.8v49.1l5.8-9.4v12.1l-7.4,2.7
			l7.4,7.4h19.5l38.7-63.1l-2.3,55.7l7.4,7.4h3.4v-5.2l5.2,5.2h21.6l14.2-29.5h43.3l9.9,22.1l7.4,7.4h3.7l-38.5-82.5L216.1,9.4z
			 M220.3,23.2l17.4,38.9c-7.3-0.2-25.6-0.6-35.8-0.7L220.3,23.2z"/>
	</g>
	<g id="Capa_2_1_">
		<g>
			<path class="st3" d="M39.2,91.9h-23L66.8,9.4h19.5v71.1l43.7-71.1h19.5v82.5h-3.4V20.5l-43.8,71.4H82.7V20.5L39.2,91.9z"/>
			<path class="st4" d="M263.4,9.6v61.7h61.2v20.6H260V9.6H263.4z"/>
			<path class="st5" d="M397.1,84.2c1.8,2.6,3.5,4.2,5.3,4.8c-0.6-1.3-1-2.6-1-3.9c0-2.4,0.8-4.5,2.6-6.1c1.6-1.6,3.7-2.4,6.1-2.4
				c2.4,0,4.4,0.8,6.1,2.4c1.6,1.6,2.6,3.5,2.6,6c0,2.4-1,4.5-2.9,6.3c-1.9,1.8-4.2,2.6-6.9,2.6c-3.5,0-6.4-0.6-8.7-1.9
				c-2.3-1.3-4.2-3.1-5.8-5.3c-1.6-2.3-3.4-5.5-5.3-9.5l-10.3-21.4l-26.4,36.3h-20.8V9.6h3.4v73l53.3-73h24L381,52.8l11.1,23
				C393.5,78.9,395.3,81.6,397.1,84.2z"/>
			<path class="st6" d="M254.7,91.9h-3.7l-13.9-29.5h-46.7l-14.2,29.5h-21.6l39.8-82.5h21.8L254.7,91.9z M235.5,59L214,13.4L192,59
				H235.5z"/>
		</g>
	</g>
</g>
</svg>
