<?xml version="1.0" encoding="utf-8"?>
<!-- Generator: Adobe Illustrator 27.5.0, SVG Export Plug-In . SVG Version: 6.00 Build 0)  -->
<svg version="1.1" xmlns="http://www.w3.org/2000/svg" xmlns:xlink="http://www.w3.org/1999/xlink" x="0px" y="0px"
	 viewBox="0 0 270.2 81.6" style="enable-background:new 0 0 270.2 81.6;" xml:space="preserve">
<style type="text/css">
	.st0{display:none;}
	.st1{display:inline;}
	.st2{fill:#212121;}
	.st3{fill:#FFFFFF;}
</style>
<g id="Capa_1" class="st0">
	<g id="Capa_2_00000005949876875261572670000007746570995819614859_" class="st1">
		<g id="Capa_1-2">
			<polygon class="st2" points="7.3,53.9 7.3,53.7 7.3,53.7 			"/>
			<polygon class="st2" points="7.3,23.7 7.3,23.5 7.3,23.5 			"/>
			<path class="st2" d="M53,57.8v-2.4l0,0v-1.5l0,0V29c-0.3-8.1-4.3-14-12-17.9l0,0l0,0C37.5,9.3,33.3,8,29.2,7.3
				c-3.7-0.6-7.3-1.1-11-1.2h-0.7c-1.7,0-3.7-0.1-5.6-0.1H7.3v17.4h12v-9.1c11.8,1.1,19,4.7,21,11.1l0.2,0.8c0,0.4,0.2,0.6,0.2,0.9
				s0.2,0.6,0.2,0.9c0,0.6,0.2,1.3,0.2,1.9v24l0,0V67c-12.4-1-19.6-4.8-21.5-11.7H7.3v20.1h12v-5.1c3.5,1.8,7.7,3.1,11.8,3.8
				c3.7,0.7,7.3,1.1,11,1.2c2.1,0.1,4.2,0.1,6.4,0.1H53v-5.9V57.8z"/>
			<polygon class="st2" points="208.3,23.5 208.3,23.5 208.3,23.7 			"/>
			<path class="st2" d="M208.3,55.3h-12.5c-1.9,6.8-9,10.6-21.2,11.6v-13l0,0V30c0-0.7,0-1.3,0.2-1.9c0-0.2,0-0.6,0.2-0.9
				c0.2-0.4,0.2-0.6,0.2-0.9l0.3-0.8c2.1-6.4,9.2-10,21.2-11.1v9.1h12V6.1h-4.9c-1.9,0-3.8,0-5.6,0.1h-0.7c-3.7,0.2-7.5,0.6-11,1.3
				c-4.2,0.7-8.3,2-11.8,3.8l0,0l0,0c-7.7,3.9-11.7,9.8-12,17.9V54l0,0v1.4l0,0v14.1v5.9h4.5c2.3,0,4.3,0,6.4-0.1
				c3.7-0.1,7.3-0.6,11-1.2c4.2-0.7,8.3-2,11.8-3.8v5.2h12L208.3,55.3L208.3,55.3z"/>
			<path class="st2" d="M426.7,14.1c3.3,0,5.9-1.8,5.9-4l0,0V9.9c-0.2-2.2-3-3.9-6.3-3.8c-3,0.1-5.4,1.8-5.6,3.8V10
				C420.8,12.3,423.4,14.1,426.7,14.1z"/>
			<rect x="420.8" y="18.9" class="st2" width="11.8" height="56.7"/>
			<path class="st2" d="M329.3,26.2L329.3,26.2L329.3,26.2L329.3,26.2v-6c0-0.2,0-0.5,0-0.7c0.3-3.5,3-5.3,8-5.3h25.9V6.1h-25
				c-3,0-5.9,0.2-8.9,0.7c-7.5,1.4-11.5,4.9-11.8,10.5c0,0.4,0,0.6,0,0.9v57.4h12L329.3,26.2z"/>
			<path class="st2" d="M156.7,63.3V18.9h-33.9c0.5-3.2,3.1-4.7,8-4.7h21.7V6.1h-20.9c-13.9,0-20.9,4.1-20.9,12.1v8.9h33.9v34.3
				c0,4-2.8,6-8,6h-21.7v8.1h20.9C149.7,75.4,156.7,71.4,156.7,63.3z"/>
			<path class="st2" d="M260,55.6c0,0,0-0.1,0-0.2c0-0.6,0.2-1.2,0.2-1.8V28.9c0-0.9,0-1.9-0.2-2.7v-0.1c-0.5-6.6-2.8-11.6-6.4-14.9
				l0,0l0,0c-1.7-1.6-4-2.9-6.4-3.8c-1.9-0.6-4-1.1-6.1-1.2h-0.2c-0.2,0-0.2,0-0.3,0H234c-0.2,0-0.2,0-0.3,0h-0.2
				c-2.1,0.2-4.2,0.6-6.1,1.3c-2.6,0.8-4.7,2.1-6.4,3.8l0,0l0,0l0,0c-3.7,3.4-5.7,8.4-6.4,14.9v0.1c0,0.6,0,1.2-0.2,1.8v3.5
				c0,0.9,0,23.1,0.2,24c0,0,0,0.1,0,0.2c0.5,6.6,2.8,11.6,6.4,14.9l0,0v-0.1c1.7,1.6,3.8,2.9,6.4,3.8c1.9,0.6,4,1.1,6.1,1.3h0.2
				c0.2,0,0.2,0,0.3,0h0.7h5.4c0.2,0,0.3,0,0.7,0c0.2,0,0.2,0,0.3,0h0.2c2.1-0.2,4.2-0.6,6.1-1.3c2.6-0.8,4.7-2.1,6.4-3.8v-0.1v0.1
				l0,0C257.2,67.1,259.4,62.2,260,55.6z M237.3,67.4L237.3,67.4c-0.5,0-0.9,0-1.4-0.1c-0.9-0.1-1.7-0.4-2.4-0.6
				c-0.9-0.5-1.7-0.9-2.4-1.5c-1-0.9-1.9-2-2.4-3.2c-1.2-2.2-1.9-4.5-2.3-6.8c0-0.2,0-0.6-0.2-0.9c0-0.2,0-0.6,0-0.9
				c0-0.6,0-22.5,0-23.2v-1.5V28c0-0.4,0.2-1.9,0.2-1.9c0.3-2.2,1-4.6,2.3-6.7c0.5-1.2,1.4-2.2,2.4-3.2c0.7-0.6,1.6-1.2,2.4-1.5
				c0.7-0.4,1.6-0.5,2.4-0.6c0.3,0,0.9-0.1,1.2-0.1h0.2c0.3,0,0.7,0,1,0.1c0.9,0.1,1.7,0.2,2.4,0.6c0.9,0.4,1.7,0.9,2.4,1.5
				c1,0.9,1.9,2,2.4,3.1c1.2,2.2,1.9,4.6,2.3,6.9c0,0,0,0,0,0.1c0,0.2,0,0.6,0,0.9s0,0.6,0.2,0.9c0,0.6,0,1.3,0,1.9v22.7
				c0,0.2,0,0.5,0,0.7s0,0.6,0,0.9c0,0.4,0,0.6-0.2,0.9c-0.3,2.4-1,4.7-2.3,6.9c-0.5,1.1-1.4,2.1-2.4,3.1c-0.7,0.6-1.6,1.2-2.4,1.5
				c-0.7,0.4-1.6,0.6-2.4,0.6C238,67.4,237.7,67.4,237.3,67.4L237.3,67.4z"/>
			<polygon class="st2" points="381.2,27.1 414.9,27.1 414.9,23.5 414.9,18.9 381.2,18.9 381.2,14.1 414.9,14.1 414.9,5.9 
				381.2,5.9 381.2,5.9 369.2,5.9 369.2,5.9 369.2,5.9 369.2,14.1 369.2,14.1 369.2,18.9 369.2,18.9 369.2,18.9 369.2,23.5 
				369.2,23.5 369.2,27.1 369.2,27.1 369.2,67.4 369.2,67.4 369.2,75.6 414.9,75.6 414.9,67.4 381.2,67.4 			"/>
			<polygon class="st2" points="71.1,27.1 104.8,27.1 104.8,23.5 104.8,18.9 71.1,18.9 71.1,14.1 104.8,14.1 104.8,5.9 71.1,5.9 
				71.1,5.9 59.1,5.9 59.1,5.9 59.1,5.9 59.1,14.1 59.1,14.1 59.1,18.9 59.1,18.9 59.1,23.5 59.1,27.1 59.1,27.1 59.1,67.4 
				59.1,67.4 59.1,75.6 104.8,75.6 104.8,67.4 71.1,67.4 			"/>
			<path class="st2" d="M311.4,66V12.9c0-4.6-4-6.9-12-6.9h-3.1h-0.5c-0.9,0.1-1.7,0.4-2.4,0.7l0,0c-1.4,0.6-2.3,1.4-2.8,2.5
				l-4.9,9.9l-8,37.4V6.1h-12v60.1c0,3.2,0.9,5.4,2.4,6.9c1.6,1.5,5,2.5,9.4,2.5h21.9c4.5,0,7.8-0.8,9.6-2.5
				C310.6,71.7,311.4,69.3,311.4,66z M285.7,67.4c-1.9,0.1-3.8-0.1-5.6-0.6L296,12.3c0.3-0.4,0.9-0.6,1.6-0.6c1.4,0,2.1,0.6,2.1,1.8
				v49.9c0.3,1.3-0.5,2.7-2.3,3.4c-1.9,0.6-3.8,0.7-5.9,0.7L285.7,67.4z"/>
			<path class="st2" d="M484.3,30c0-3.2-1.4-5.5-4.3-7.1c3-1.1,4.3-3.4,4.3-6.9V5.9h-12v8.9c0.2,1.3-0.7,2.6-2.3,3.4
				c-1.7,0.5-3.8,0.7-5.7,0.7h-5.7c-1.9,0.1-4-0.1-5.7-0.7c-1.6-0.7-2.4-2.1-2.3-3.4V5.9h-12V16c0,3.6,1.4,6,4.3,6.9
				c-2.8,1.2-4.3,3.4-4.3,6.9v45.5h12V31.1c-0.2-1.3,0.5-2.6,2.3-3.4c1.7-0.5,3.8-0.7,5.7-0.6h5.9c1.9-0.1,3.8,0.1,5.7,0.6
				c1.6,0.7,2.4,2,2.3,3.4v44.5h12L484.3,30z"/>
		</g>
	</g>
</g>
<g id="Capa_2">
	<g>
		<path class="st3" d="M24.5,65.8H10.2l31.4-51.2h12.1v44.1l27.1-44.1h12.1v51.2h-2.1V21.5L63.6,65.8H51.5V21.5L24.5,65.8z"/>
		<path class="st3" d="M158.2,65.8h-2.3l-8.6-18.3h-29l-8.8,18.3H96.1l24.7-51.2h13.5L158.2,65.8z M146.3,45.4L133,17.1l-13.7,28.3
			H146.3z"/>
		<path class="st3" d="M163.6,14.7V53h38v12.8h-40.1V14.7H163.6z"/>
		<path class="st3" d="M246.6,61c1.1,1.6,2.2,2.6,3.3,3c-0.4-0.8-0.6-1.6-0.6-2.4c0-1.5,0.5-2.8,1.6-3.8c1-1,2.3-1.5,3.8-1.5
			c1.5,0,2.7,0.5,3.8,1.5c1,1,1.6,2.2,1.6,3.7c0,1.5-0.6,2.8-1.8,3.9c-1.2,1.1-2.6,1.6-4.3,1.6c-2.2,0-4-0.4-5.4-1.2
			c-1.4-0.8-2.6-1.9-3.6-3.3c-1-1.4-2.1-3.4-3.3-5.9l-6.4-13.3l-16.4,22.5H206V14.7h2.1V60l33.1-45.3h14.9l-19.5,26.8l6.9,14.3
			C244.4,57.7,245.5,59.4,246.6,61z"/>
	</g>
</g>
</svg>
