<?xml version="1.0" encoding="utf-8"?>
<!-- Generator: Adobe Illustrator 24.0.1, SVG Export Plug-In . SVG Version: 6.00 Build 0)  -->
<svg version="1.1" id="Capa_1" xmlns="http://www.w3.org/2000/svg" xmlns:xlink="http://www.w3.org/1999/xlink" x="0px" y="0px"
	 viewBox="0 0 68.7 68" style="enable-background:new 0 0 68.7 68;" xml:space="preserve">
<g>
	<path d="M65.3,17.1l-0.6-0.4h-0.2h-0.2h-0.2l0,0c0-0.2-0.2-0.2-0.4-0.2l0,0h-0.6l0,0l0,0l-0.4-0.2v-0.4v-0.4L63,15l0,0v-0.4
		c0-0.2-0.2-0.4-0.4-0.6c0,0,0,0-0.2,0l-0.8,0.2h-0.4l-0.6,0.2h-0.2l-0.4-0.2l-0.2-0.4c0-0.2-0.2-0.2-0.2-0.2h-0.2l0,0H59h-0.2
		c-0.2,0-0.2,0-0.4,0h-0.2l-0.4-0.2c-0.2,0-0.2,0-0.4,0l-0.6,0.2h-0.2h-0.2l0,0h-0.4h-0.2l-0.4,0.2l0,0l-0.6,0.8l-0.2,0.2h-0.2h-0.8
		h-0.4h-0.2L52.8,15l0,0L52,15.5c0,0,0,0,0,0.2l-0.2,0.2c0,0.2,0,0.2,0,0.4v0.2l0,0h-0.2h-0.2l-0.8-0.2c0,0,0,0-0.2,0h-0.4h-0.2
		l-0.2,0.2l-0.2,0.2l-0.2,0.2l-0.2-0.2c0,0,0,0-0.2,0h-0.2l-0.2-0.2h-0.2l-0.2-0.2l-0.2-0.4c0-0.2-0.2-0.4-0.4-0.4h-0.2l-0.6-0.2
		l-1-0.6l-0.2-0.2l0,0L45,14.4h-0.2h-0.6l0,0l-1.2,0.4l-0.8-0.2h-0.2l-0.4,0.2c0,0-0.2,0-0.2,0.2v0.2c0,0,0,0,0,0.2l-0.2,0.4
		L41,16.1l0,0l-0.4,0.4l-0.4-0.2H40h-0.4h-0.2l-0.4-0.4l-0.2-0.4l-0.2-1l0,0h0.4h0.2h0.2c0.2,0,0.4-0.2,0.4-0.6v-0.2l-0.2-0.4
		l-0.2-0.2c0,0,0,0,0-0.2l-0.2-0.2c-0.2-0.2-0.4-0.2-0.6-0.2h-0.2l-0.2,0.2l-0.2,0.6v0.2v0.2c0,0,0,0-0.2,0h-0.4h-0.4l-1-0.8l0,0
		l-0.6-0.2c0,0,0,0-0.2,0l-1.2-0.2l0,0v-0.2l0,0c-0.2-0.2-0.4-0.2-0.6,0l0,0l-0.2,0.2l0,0c-0.4-0.2-0.6-0.2-0.8-0.2h-0.2
		c-0.2,0-0.4,0.2-0.4,0.2v0.2l0,0l-0.2,0.6l-0.4,0.2l-1.2,0.2c-0.2,0-0.2,0-0.4,0.2l-0.2,0.4h-0.2l-1-0.2l0,0V14l-0.2-0.4l0,0
		l0.4-0.4c0.2,0,0.2-0.2,0.2-0.4v-0.4c0-0.2,0-0.2-0.2-0.2l-0.4-0.4l0,0l0.2-0.2v-0.2v-0.4c0-0.2,0-0.2-0.2-0.4l0.2-0.4
		c0-0.2,0-0.4,0-0.4l-0.2-0.4V9.4l-0.2-0.6c0,0,0,0,0-0.2l-0.4-0.2l-0.2-0.2l-0.4-0.6c0,0,0-0.2-0.2-0.2l-0.2-0.2l0,0
		c0-0.2,0-0.4-0.2-0.6h-0.4h-2.5c0,0,0,0-0.2,0L23,6.8l-0.2-0.2l-0.2-0.2l-0.2-0.4l0,0l-0.2-0.4c0,0,0,0,0-0.2l-0.4-0.4
		c0,0-0.2,0-0.2-0.2l-0.4-0.2l0,0h-1.5l-0.4,0l0,0h-0.2c-0.2,0-0.4,0-0.4,0h-0.4l-0.2-0.2L18,4.3c0,0,0,0-0.2,0l-0.6-0.2l-0.8-0.6
		l0,0h-0.4c0,0,0,0-0.2,0h-0.4h-0.2l-0.6-0.4h-0.2h-0.4h-0.6h-0.2L13,3.4c-0.2,0-0.2,0.2-0.2,0.4v0.4v0.2v0.4l-0.4,0.6
		c0,0.2,0,0.4,0,0.4l0,0v0.4c0,0.2,0,0.2,0,0.4s0,0.2,0.2,0.2h0.2L13,6.8V7v0.2c0,0.2,0,0.4,0.2,0.6L13.3,8l0.2,0.4l0,0.2l0.2,0.8
		l0,0l0.2,0.2c0,0,0,0,0.2,0.2l0.2,0.2l0,0h0.2l0,0h0.4l0,0v0.6l-0.4,1l0,0c0,0,0,0.2-0.2,0.2l-0.2,0.4v0.2v0.2h-0.2h-0.2
		c0,0-0.2,0.2-0.2,0.4V13v0.2v0.2l0,0v0.2l0,0v0.2V14l0.4,0.4l0,0l0.4,0.6l0.2,0.8v0.8v0.2v0.6v0.2l0,0v0.2v0.6v0.6l0,0l-0.2,0.6
		l-0.2,0.4l0,0V20l0,0l-0.2,0.8l-0.2,0.8v0.2v0.4l-0.2,1l0,0l0,0c-0.2,0-0.2,0.2-0.2,0.2l0,0l-0.2,1v0.2L13,25v0.2v0.2v0.2l0,0l0,0
		C12.4,26,12.4,26,12.4,26l-0.2,0.2c0,0,0,0,0,0.2v0.2l0,0l0,0c0,0,0,0-0.2,0l-0.4,0.2c0,0,0,0-0.2,0.2l-0.2,0.4v0.2v0.2
		c0,0.2,0,0.2,0.2,0.4l0.2,0.2c0,0,0,0,0.2,0l0,0l0,0v0.8l0,0l-0.2,0.2l-0.4,0.2c0,0-0.2,0-0.2,0.2l-0.2,0.2V30l0,0h-0.4h-0.2
		c0,0-0.2,0-0.2,0.2l-0.2,0.2l0,0l-0.8,1.4l0,0L8.5,32c0,0,0,0-0.2,0l-0.2,0.2H7.9l-0.2,0.2v0.2c0,0,0,0-0.2,0l-0.2,0.2l0,0
		l-0.2,0.4l-0.4,0.6l0,0l-0.4,0.4c0,0,0,0.2,0,0.4v0.4c0,0,0,0,0,0.2l0.2,0.6v0.6l0,0l0.2,0.2l0,0v0.2L7,36.8h0.2c0,0,0,0,0.2,0h0.6
		h0.2h0.2V37l0,0l0,0l0.2,0.8l0,0l-0.4,0.6l0,0v0.2l0,0l-0.2,0.2l-0.6,0.2c0,0,0,0-0.2,0L7,39.1l-0.2,0.2v0.2v0.2v0.4v0.4l-0.2,0.8
		l-0.2,0.4c0,0.2-0.2,0.2-0.2,0.4l0.2,0.6c0,0.2,0.2,0.4,0.2,0.4L7,43.2l0.2,0.2v0.2v0.2L7,44.3l-0.2,0.4v0.2v0.4v0.2v0.4l-0.6,0.2
		L6,46.3l-0.2,0.4c0,0,0,0,0,0.2v0.4l-0.2,0.4l0,0l-0.2,0.2H5c0,0-0.2,0-0.2,0.2l-0.2,0.2H4.5c0,0,0,0-0.2,0H4.1l-0.2,0.2v0.2
		c0,0,0,0,0,0.2v0.4l0,0v0.2v0.2v0.2l0,0l0,0l0.6,1.4l0,0c0,0,0,0.2,0.2,0.2L5,51.5l0,0l0.2,0.2l0.2,0.2l0.2,0.8V53l-0.2,0.4
		l-0.2,0.4V54l0,0L5,54.6l0,0v0.2V55l0.2,0.4v0.4c0,0,0,0,0,0.2l0.2,0.6v0.2l-0.8,0.6c0,0,0,0,0,0.2l-0.2,0.2l-1,0.6l0,0l0,0l0,0
		c-0.2,0.2-0.2,0.2-0.2,0.4V59c0,0,0,0,0,0.2l0.2,0.2l0.6,0.2h0.2l0,0v0.2c0,0,0,0,0,0.2l0.2,0.2c0,0,0,0,0.2,0.2L5,60.6l0,0v0.2V61
		v0.2v0.2l0.2,0.4c0,0,0,0,0.2,0.2l0.2,0.2l0,0L6,62.3l0,0l1.7,0.4l0.6,0.2l0.2,0.2l0,0v0.2v0.2l0,0l0.2,0.2l0,0l0.2,0.2
		c0,0,0,0,0.2,0l1.2,0.8l0,0l0.2,0.2l0,0c0.2,0,0.2-0.2,0.4-0.2l0.4-1.2l0.2-0.2l0.4,0.8c0,0.2,0.2,0.2,0.4,0.2h0.6l0,0l0.6-0.2
		c0,0,0,0,0.2,0l0.8-0.8c0,0,0,0,0.2,0l1-1.5l0.4-0.4L17,61c0.2,0,0.2,0,0.2-0.2l0.4-0.8v-0.2v-0.6c0-0.2-0.2-0.4-0.4-0.4l-0.4-0.2
		h-0.2l-0.4-0.2l0,0l0-0.8l0,0l-0.2-0.2c0,0,0,0-0.2,0l-0.2-0.2c0,0,0,0-0.2,0h-0.4c-0.2,0-0.4,0-0.4,0.2l0,0l0,0l0.2-0.4L17,55l0,0
		l1-1.4l2.1-2.1l0.4-0.2l0,0l0.8-0.4l0.8-0.2h0.8l0.4,0.2c0.2,0,0.2,0.2,0.4,0h0.2c0,0,0.2,0,0.2-0.2v-0.2l0,0v-0.2l0.2-0.2l0.2-0.4
		l1.4-0.4l0,0l4.8-1.7l1.5-0.2l0,0l3.9-1.2h0.6c0,0,0,0,0.2,0h0.2l0,0l0.4-0.2l1.2-0.4l1.4-0.2l0,0l0.8-0.2l0,0l0.4-0.2l1-0.6l0,0
		l0.4-0.4l0.2-0.2l0,0l0.6-0.8l0,0l1-1.5l0.6-0.6l0.6-0.4l1.4-0.6l0,0l1.2-0.8l0,0l0.4-0.4l0.4-0.2l2.3-1l1.2-0.6l2.5-1l0.2-0.2
		l0.2-0.4l0,0h0.2c0.2,0,0.2-0.2,0.4-0.2v-0.2l0.2-0.2h0.2l1-0.2l0.6-0.2c0,0,0.2,0,0.2-0.2l0.4-0.6l1.7-1.4l0.6-0.4
		c0.2,0,0.2-0.2,0.2-0.2l0.2-0.6l0.6-0.4h0.6c0.2,0,0.2,0,0.4-0.2l0,0l0.6-0.8l0.2-0.2l0,0c0,0,0,0,0-0.2l0.2-0.6l0.6-0.8v-0.2v-0.6
		c0-0.2,0-0.2,0-0.4l-0.2-0.2l0,0l-0.2-0.2V26l-0.2-1v-0.2l0.2-0.2c0,0,0.2-0.2,0.2-0.4v-0.4v-0.2l-0.4-0.6v-0.2l-0.6-0.2
		c0,0,0,0-0.2,0l-0.6-0.4l-0.2-0.2v-0.4v-1.5l0.2-0.4l0.2-0.2c0,0,0,0,0.2,0.2l0.6,0.2H63l0.6-0.2h0.2c0.2,0,0.4,0,0.6-0.2v-0.2l0,0
		c0,0,0,0,0.2-0.2l0.2-0.2c0,0,0,0,0-0.2v-0.4v-0.2l0.4-1l0,0C65.5,17.5,65.5,17.3,65.3,17.1z M13.5,62.3l-0.2,0.2l-0.2-0.2H13h-0.4
		l1.2-0.4h0.2L13.5,62.3z"/>
</g>
</svg>
