<?xml version="1.0" encoding="utf-8"?>
<!-- Generator: Adobe Illustrator 24.0.1, SVG Export Plug-In . SVG Version: 6.00 Build 0)  -->
<svg version="1.1" id="Capa_1" xmlns="http://www.w3.org/2000/svg" xmlns:xlink="http://www.w3.org/1999/xlink" x="0px" y="0px"
	 viewBox="0 0 68.7 68" style="enable-background:new 0 0 68.7 68;" xml:space="preserve">
<style type="text/css">
	.st0{fill:#D9131A;}
	.st1{fill:#FBDB09;}
	.st2{fill:#FBDC09;}
	.st3{fill:#D9121A;}
</style>
<g>
	<path class="st0" d="M65.5,17.5h-51l0,0v-0.2v-0.6v-0.2v-0.8L14.3,15l-0.4-0.4l0,0l-0.2-0.2v-0.2v-0.4l0,0v-0.2l0,0v-0.2V13v-0.2
		c0-0.2,0-0.2,0.2-0.4h0.2h0.2v-0.2v-0.2l0-0.4c0,0,0-0.2,0.2-0.2l0,0l0.4-0.6v-0.6l0,0h-0.4l0,0l-0.2-0.4l0,0l-0.2-0.2
		c0,0,0,0-0.2-0.2h-0.2l0,0l-0.2-1l-0.2-0.2h14.5L28,8.6c0,0,0,0,0,0.2l0.2,0.6v0.2l0.2,0.4c0,0.2,0.2,0.2,0,0.4l-0.2,0.4
		c0,0,0.2,0.2,0.2,0.4v0.2v0.2l-0.2,0.2l0,0l0.4,0.4l0.2,0.2v0.4c0,0.2,0,0.4-0.2,0.4l-0.4,0.4l0,0l0.2,0.4V14l0,0l1.4,0.2H30
		l0.2-0.4c0,0,0.2-0.2,0.4-0.2l1.2-0.2l0.4-0.2l0.2-0.6l0,0v-0.2c0,0,0.2,0,0.4,0h0.2c0.2,0,0.2,0,0.4,0.2l0,0l0.2-0.2l0,0
		c0.2-0.2,0.4-0.2,0.6,0l0,0v0.2l0,0l1.2,0.2c0,0,0,0,0.2,0l0.4,0.2l0,0l1,0.8h0.4h0.4c0,0,0,0,0.2,0v0v-0.2l0.2-0.6l0.2-0.2h0.2
		c0.2,0,0.4,0,0.6,0.2l0.2,0.2c0,0,0,0,0,0.2l0.2,0.4l0.2,0.4c0,0,0,0,0,0.2S39.2,14.8,39,15h-0.2h-0.2h-0.4l0,0l0.2,1l0.2,0.4h0.8
		h0.2H40h0.2l0.2-0.2l0.4-0.4l0,0l0.4-0.4l0.2-0.4c0,0,0,0,0-0.2v-0.2l0.2-0.2l0.4-0.2h0.2l0.8,0.2l1.2,0l0,0h0.6h0.2l0.6,0.4l0,0
		l0.2,0.2l1,0.6l0.6,0.2h0.2c0.2,0,0.4,0.2,0.4,0.4l0.2,0.4l0.2,0.2h0.2c0.4,0,0.8,0,1.2,0l0.2-0.2h0.2h0.4c0,0,0,0,0.2,0l0.6,0.2
		c0.2,0,0.2,0,0.4,0v-0.2c0-0.2,0-0.2,0-0.4l0.2-0.2c0,0,0,0,0-0.2l0.8-0.6l0,0l0.6-0.4h0.2h0.4h0.8h0.2l0.4-0.2l0.6-0.6l0,0
		l0.4-0.2H56h0.4l0,0h0.2h0.2l0.6-0.4c0.2,0,0.2-0.2,0.4,0l0.4,0.2h0.2c0,0,0.2,0,0.4,0h0.2h0.6l0,0h0.2c0.2,0,0.2,0.2,0.2,0.2
		l0.2,0.4l0.4,0.2l0.2,0h0.4h0.4l0.8-0.2c0,0,0,0,0.2,0s0.4,0.2,0.4,0.6v0.4l0,0l-0.2,0.6v0.4v0.2l0.2,0.2l0,0h0.8
		c0.2,0,0.2,0,0.4,0.2l0,0h0.2h0.2h0.2l0.6,0.4C65.5,17.3,65.5,17.5,65.5,17.5z"/>
	<path class="st1" d="M63,29.3l-0.2,0.2l-0.6,0.8l0,0c0,0.2-0.2,0.2-0.4,0.2h-0.6l-0.6,0.4l0,0.6c0,0.2-0.2,0.2-0.2,0.2L59.9,32
		l-1.7,1.4l-0.4,0.6l-0.2,0.2L57,34.3l-1,0.2h-0.2l-0.2,0.2v0.2c0,0.2-0.2,0.2-0.4,0.2h-0.2l0,0v0.6l-0.2,0.2l-2.5,1L51,37.4l-2.3,1
		c-13.5,0-27.2,0-40.8,0L8.5,38l0,0l-0.2-0.4l0,0l0,0v-0.2H8.1H7.9H7.4c0,0,0,0-0.2,0H7c0,0-0.2,0-0.2-0.2V37l0,0l-0.2-0.2l0,0v-1.2
		l-0.2-0.6c0,0,0,0,0-0.2v-0.4c0-0.2,0-0.2,0-0.4l0.2-0.4l0,0L7,33.3l0.2-0.4l0,0l0.2-0.2c0,0,0,0,0.2,0v-0.2l0.2-0.2c0,0,0,0,0.2,0
		l0.2-0.2c0,0,0,0,0.2,0l0.8-0.4l0,0l0.6-1l0,0l0.2-0.2l0.2-0.2h0.2h0.4l0,0v-0.2l0.2-0.4c0,0,0-0.2,0.2-0.2l0.4-0.2l0.2-0.2
		C28.6,29.3,45.8,29.3,63,29.3z"/>
	<path class="st0" d="M24.2,50.1L24,50.3v0.2l0,0v0.2l-0.2,0.2h-0.2c-0.2,0-0.4,0-0.4,0l-0.4-0.2H22l-0.8,0.2l-0.8,0.2l0,0l-0.4,0.2
		L18,53.4L16.8,55l0,0l-2.1,2.1l-0.2,0.4l0,0l0,0c0-0.2,0.2-0.2,0.4-0.2h0.4h0.2l0.2,0.2c0,0,0,0,0.2,0l0.2,0.2l0,0l0.4,0.6l0,0
		l0.4,0.2H17l0.4,0.2c0.2,0,0.4,0.2,0.4,0.4v0.2c-4.8,0-9.7,0-14.5,0c0,0,0,0,0-0.2v-0.4c0-0.2,0-0.4,0.2-0.4l0,0l0,0l0,0l1-0.6
		l0.2-0.4c0,0,0,0,0-0.2L5,56.9v-0.2l-0.2-0.6c0,0,0,0,0-0.2v-0.4l-0.2-0.4V55v-0.2l0,0l0.2-0.6l0,0V54L5,53.6L5.4,53v-0.4l-0.2-0.8
		L5,51.7l-0.2-0.2l0,0l-0.4-0.2c0,0,0,0-0.2-0.2l0,0l-0.4-1C3.9,50.1,24.2,50.1,24.2,50.1z"/>
	<path class="st2" d="M28.2,9.6H13.7l0,0l-0.2-1l-0.2-0.2L13.2,8H13c0-0.2-0.2-0.4,0-0.6V7.2V7l-0.2-0.2l-0.2-0.2
		c-0.2,0-0.2-0.2-0.2-0.2s0-0.2,0-0.4l0.2-0.4l0,0c-0.2,0-0.2-0.2-0.2-0.4l0.4-0.6V4.3V4.2V3.8c0-0.2,0.2-0.2,0.2-0.4l0.4-0.2
		c0,0,0,0,0.2,0h0.6h0.4h0.2l0.6,0.4h0.2h0.4H16h0.4l0,0l0.8,0.6l0.6,0.2c0,0,0,0,0.2,0l0.2,0.2l0.2,0.2l0.4-0.2c0.2,0,0.2,0,0.4,0
		h0.2l0,0l0.4,0.2h1.5l0,0l0.4,0.2c0,0,0.2,0,0.2,0.2l0.4,0.4c0,0,0,0,0,0.2l0.2,0.4l0,0l0.2,0.4l0.2,0.2L23,6.9l0.6-0.2
		c0,0,0,0,0.2,0h2.5l0.4,0.2c0.2,0,0.4,0.4,0.2,0.6l0,0l0.2,0.2c0,0,0.2,0,0.2,0.2l0.4,0.6h0.2L28,8.6c0,0,0,0,0,0.2L28.2,9.6z"/>
	<path class="st2" d="M65.5,17.5L65.5,17.5l-0.4,1v0.2V19c0,0,0,0,0,0.2l-0.2,0.2c0,0,0,0-0.2,0.2l0,0v0.2c0,0.2-0.4,0.4-0.6,0.2H64
		l-0.6,0.2h-0.2L62.6,20c0,0-0.2,0-0.2-0.2L62.2,20L62,20.4v1.5v0.4l0.2,0.2l0.6,0.4c0,0,0,0,0.2,0l0.4,0.6v0.2l0.4,0.6v0.2v0.2H13
		l0.2-1l0,0c0-0.2,0-0.2,0.2-0.2l0,0l0,0l0.4-1.4v-0.4v-0.2l0.2-0.8l0.2-0.8l0,0v-0.2l0,0l0.2-0.4l0.2-0.4l0,0v-0.6v-0.6v-0.2l0,0
		v-0.2v-0.6v-0.2c11.4,0,22.6,0,34,0c0.4,0,0.8,0,1.2,0c0.6,0,1,0,1.5,0c0.2,0,0.2,0,0.4,0c3.9,0,7.5,0,11.4,0h0.8
		c0.2,0,0.2,0,0.4,0.2l0,0h0.2h0.2h0.2l0.6,0.4C65.5,17.3,65.5,17.5,65.5,17.5z"/>
	<path class="st3" d="M64,26.9v0.6v0.2l-0.6,0.8l-0.2,0.6c0,0,0,0,0,0.2l0,0L63,29.5l-0.6,0.8l0,0c-17.4,0-34.6,0-52,0h0.4l0,0V30
		l0-0.2c0,0,0-0.2,0.2-0.2l0.4-0.2l0.2-0.2l0,0v-0.8l0,0l0,0c0,0,0,0-0.2,0l-0.2-0.2c0,0-0.2-0.2-0.2-0.4v-0.2v-0.2l0.2-0.4
		c0,0,0,0,0.2-0.2l0.4-0.2c0,0,0,0,0.2,0l0,0l0,0v-0.2c0,0,0,0,0-0.2l0.4-0.4h0.2l0,0l0,0v-0.2v-0.2v-0.2l0.2-0.6v-0.2l0.2-1l0,0
		h49.8l0.4,0.6v0.2v0.4c0,0.2,0,0.2-0.2,0.4l-0.2,0.2v0.2l0.2,1v0.2l0.2,0.2l0,0l0.2,0.2C64,26.8,64,26.8,64,26.9z"/>
	<path class="st3" d="M51,37.4l-2.3,1l-0.4,0.2l-0.4,0.4l0,0l-1.2,0.8l0,0l-1.4,0.6l-0.6,0.4l-0.4,0.8l-1,1.5l0,0l-0.6,0.8l0,0
		l-0.2,0.2l-0.4,0.4l0,0l-1.2,1h-9.5c-8.3,0-16.6,0-24.9,0v-0.4v-0.2L7,44.3l0.2-0.6v-0.2v-0.2L7,43.2l-0.4-0.4
		c-0.2,0-0.2-0.2-0.2-0.4l-0.2-0.6c0-0.2,0-0.2,0.2-0.4l0.2-0.2l0.2-0.6v-0.4v-0.4c0,0,0,0,0-0.2v-0.2c0,0,0-0.2,0.2-0.2l0.2-0.2
		c0,0,0,0,0.2,0l0.6-0.2l0.2-0.2l0,0v-0.2l0,0L8.5,38l0,0l-0.2-0.4l0,0H51V37.4z"/>
	<path class="st2" d="M42.5,44.3l-0.4,0.4l0,0l-1,0.6l-0.4,0.2l0,0L40,45.7l0,0l-1.4,0.2l-1.2,0.4l-0.4,0.2l0,0h-0.2c0,0,0,0-0.2,0
		h-0.6l-3.9,1.2l0,0l-1.5,0.2l-4.8,1.7l0,0l-1.4,0.4l-0.2,0.4l-0.4,0v0.2l0,0v0.2l-0.2,0.2h-0.2c-0.2,0-0.4,0-0.4,0l-0.4-0.2H22
		l-0.8,0.2l-0.8,0.2l0,0h-16l0,0l-0.4-1l0,0l0,0c0,0,0,0,0-0.2v-0.2v-0.2l0,0v-0.4c0,0,0,0,0-0.2v-0.2c0-0.2,0.2-0.2,0.2-0.2h0.2
		c0,0,0,0,0.2,0h0.2L5,48.4l0.2-0.2h0.4L5.8,48l0,0L6,47.2v-0.4c0,0,0,0,0-0.2l0.2-0.4l0.2-0.2L7,45.9v-0.4v-0.2v-0.4v-0.2l0.2-0.4
		C7.2,44.3,42.5,44.3,42.5,44.3z"/>
	<path class="st2" d="M17.6,58.6l-0.4-0.2H17l-0.4-0.2l0,0c-4.2,0-8.7,0-12.9,0l0,0l0,0l0,0c-0.2,0.2-0.2,0.2-0.2,0.4V59
		c0,0,0,0,0,0.2l0.2,0.2l0.6,0.2h0.2l0,0v0.2c0,0,0,0,0,0.2l0.2,0.2c0,0,0,0,0.2,0.2l0.4,0.2l0,0v0.2v0.2v0.2v0.2l0.2,0.4
		c0,0,0,0,0.2,0.2l0.2,0.2l0,0l0.4,0.2l0,0l1.5,0.4l0.6,0.2l0.2,0.2l0,0v0.2v0.2l0,0l0.2,0.2l0,0l0.2,0.2c0,0,0,0,0.2,0l1.2,0.8l0,0
		l0.2,0.2l0,0c0.2,0,0.2-0.2,0.4-0.2l0.4-1.2l0.2-0.2l0.4,0.8c0,0.2,0.2,0.2,0.4,0.2h0.6l0,0l0.6-0.2c0,0,0,0,0.2,0l0.8-0.8
		c0,0,0,0,0.2,0l1-1.5l0.4-0.4l1.2-0.4c0.2,0,0.2,0,0.2-0.2l0.4-0.8v-0.2v-0.6C17.8,59,17.6,58.8,17.6,58.6z M13.5,62.3l-0.2,0.2
		l-0.2-0.2H13h-0.4l1.2-0.4h0.2L13.5,62.3z"/>
</g>
</svg>
