<svg xmlns="http://www.w3.org/2000/svg" viewBox="0 0 274.32 59.19"><defs><style>
    .cls-1{
    fill:#FFD200;
    stroke-width: 1.5px;
    stroke-dasharray: none;
    stroke-dashoffset: 0.5px 0.5px;
    stroke:black;
    }
    .linea-svg{
    
    }
    </style>
    </defs><title>Logotipo</title><g id="Capa_2" data-name="Capa 2"><g id="Capa_1-2" data-name="Capa 1"><polygon class="cls-1" points="0 40.8 0 40.62 0 40.62 0 40.8"/><polygon class="cls-1" points="0 15.12 0 14.94 0 14.94 0 15.12"/><path class="cls-1" d="M26.32,44.09v-2h0V40.82h0V19.57c-.19-6.86-2.5-11.91-6.88-15.18h0v0a20.3,20.3,0,0,0-6.8-3.2A33.53,33.53,0,0,0,6.3.16l-.45,0c-1,0-2.1-.06-3.21-.07H0V14.94H6.89V7.22c6.85.88,10.9,4,12.15,9.36l.15.73c0,.26.08.51.11.76s.06.5.08.75c.05.54.07,1.08.07,1.65V40.82h0V52C12.34,51.07,8.27,47.79,7.18,42H0v17.1H6.89V54.78A20.35,20.35,0,0,0,13.7,58,33.42,33.42,0,0,0,20,59.05c1.17.07,2.39.09,3.66.09h2.65l0-5Z"/><polygon class="cls-1" points="115.61 14.94 115.61 14.94 115.61 15.12 115.61 14.94"/><path class="cls-1" d="M115.61,42h-7.18c-1.09,5.75-5.16,9-12.25,9.94V40.82h0V20.47c0-.57,0-1.11.07-1.65,0-.25,0-.5.08-.75s.07-.5.11-.76l.15-.73c1.25-5.4,5.3-8.48,12.15-9.36v7.72h6.89V.06H113c-1.11,0-2.18,0-3.21.07l-.45,0A33.53,33.53,0,0,0,103,1.23a20.3,20.3,0,0,0-6.8,3.2v0h0c-4.38,3.27-6.69,8.32-6.88,15.18V40.82h0v1.25h0v12l0,5h2.65c1.27,0,2.49,0,3.66-.09A33.42,33.42,0,0,0,101.91,58a20.35,20.35,0,0,0,6.81-3.2v4.36h6.89Z"/><path class="cls-1" d="M241.23,6.93a3.41,3.41,0,0,0,3.41-3.42V3.44a3.42,3.42,0,0,0-6.83,0v.07A3.42,3.42,0,0,0,241.23,6.93Z"/><rect class="cls-1" x="237.81" y="11.04" width="6.83" height="48.15"/><path class="cls-1" d="M185.24,17.19h0v0h0V12.07c0-.22,0-.42,0-.63.21-3,1.73-4.46,4.57-4.46h14.89V.07H190.3a19,19,0,0,0-5.1.61c-4.32,1.2-6.6,4.19-6.83,8.89a7.49,7.49,0,0,0,0,.82V59.14h6.9Z"/><path class="cls-1" d="M85.87,48.82V11H66.45C66.75,8.29,68.27,7,71,7H83.5V.05h-12c-8,0-12,3.49-12,10.34V18H79v29.2c0,3.44-1.57,5.09-4.57,5.09H61.91v6.9h12C81.88,59.14,85.87,55.65,85.87,48.82Z"/><path class="cls-1" d="M145.31,42.17c0-.05,0-.11,0-.16,0-.48.06-1,.07-1.47v-21c0-.81,0-1.58-.08-2.32,0,0,0-.1,0-.15-.34-5.63-1.58-9.87-3.69-12.73h0v0a10.41,10.41,0,0,0-3.74-3.21A11.27,11.27,0,0,0,134.39.1h-.08a.47.47,0,0,0-.17,0h-3.8a.5.5,0,0,0-.18,0h-.08a11.44,11.44,0,0,0-3.47,1.08,10.46,10.46,0,0,0-3.71,3.16l0,0v0h0c-2.1,2.86-3.35,7.1-3.69,12.73,0,.05,0,.1,0,.15,0,.48,0,1-.06,1.48v2.95c0,.8,0,19.63.08,20.36,0,.05,0,.11,0,.16.34,5.62,1.58,9.86,3.69,12.73h0v-.06a10.38,10.38,0,0,0,3.73,3.21,11.42,11.42,0,0,0,3.48,1.08h.08a.47.47,0,0,0,.17,0l.36,0h3.07a2.23,2.23,0,0,0,.37,0,.52.52,0,0,0,.18,0h.08a11.44,11.44,0,0,0,3.47-1.08,10.4,10.4,0,0,0,3.7-3.15l0-.06v.06h0C143.73,52,145,47.79,145.31,42.17Zm-13,10.17h-.07a3.2,3.2,0,0,1-.7-.07,3.8,3.8,0,0,1-1.4-.55,5.38,5.38,0,0,1-1.4-1.34,10.46,10.46,0,0,1-1.41-2.67A23.58,23.58,0,0,1,126,41.94q0-.36-.06-.75c0-.24,0-.5,0-.76,0-.53,0-19.11,0-19.69V19.4l0-.6c0-.26.11-1.56.11-1.58a23.14,23.14,0,0,1,1.26-5.69,10.52,10.52,0,0,1,1.41-2.68,5,5,0,0,1,1.4-1.33A3.82,3.82,0,0,1,131.5,7a3.38,3.38,0,0,1,.72-.07h.07a3.83,3.83,0,0,1,.6.05,3.68,3.68,0,0,1,1.4.51,5,5,0,0,1,1.41,1.3,10,10,0,0,1,1.4,2.62,23.07,23.07,0,0,1,1.26,5.85s0,.05,0,.07c0,.24,0,.5,0,.75s0,.5.05.76c0,.53,0,1.06,0,1.65V39.83c0,.21,0,.4,0,.6s0,.52,0,.76,0,.51-.07.75a23.59,23.59,0,0,1-1.27,5.9,10.25,10.25,0,0,1-1.4,2.62,5.1,5.1,0,0,1-1.41,1.3,3.54,3.54,0,0,1-1.4.53A4.1,4.1,0,0,1,132.27,52.34Z"/><polygon class="cls-1" points="214.98 17.95 234.41 17.95 234.41 14.94 234.41 11.04 214.98 11.04 214.98 6.94 234.41 6.94 234.41 0.03 214.98 0.03 214.98 0.01 208.08 0.01 208.08 0.03 208.07 0.03 208.07 6.94 208.08 6.94 208.08 11.04 208.07 11.04 208.07 11.04 208.07 14.94 208.07 14.94 208.07 17.95 208.08 17.95 208.08 52.27 208.07 52.27 208.07 59.17 234.41 59.17 234.41 52.27 214.98 52.27 214.98 17.95"/><polygon class="cls-1" points="36.7 17.95 56.13 17.95 56.13 14.94 56.13 11.04 36.7 11.04 36.7 6.94 56.13 6.94 56.13 0.03 36.7 0.03 36.7 0.01 29.8 0.01 29.8 0.03 29.8 0.03 29.8 6.94 29.8 6.94 29.8 11.04 29.8 11.04 29.8 14.94 29.8 17.95 29.8 17.95 29.8 52.27 29.8 52.27 29.8 59.17 56.13 59.17 56.13 52.27 36.7 52.27 36.7 17.95"/><path class="cls-1" d="M174.92,51.12V5.91Q174.92,0,168,0h-1.76l-.33,0a4.26,4.26,0,0,0-1.38.58h0a3.72,3.72,0,0,0-1.57,2.06l-2.82,8.39-4.62,31.81V.07H148.6V51.13c0,2.67.47,4.64,1.43,5.9s2.92,2.11,5.45,2.11H168c2.64,0,4.47-.68,5.5-2.06Q174.92,55.3,174.92,51.12Zm-14.87,1.15a7.44,7.44,0,0,1-3.22-.52L166,5.42a1.09,1.09,0,0,1,.9-.46c.79,0,1.19.5,1.19,1.5V48.81a3,3,0,0,1-1.29,2.9,7.15,7.15,0,0,1-3.35.56Z"/><path class="cls-1" d="M274.32,20.45c0-2.68-.84-4.66-2.53-6,1.69-.91,2.53-2.88,2.53-5.88V0h-6.88V7.61a3.12,3.12,0,0,1-1.27,2.88,7.08,7.08,0,0,1-3.32.55h-3.32a7.06,7.06,0,0,1-3.32-.55,3,3,0,0,1-1.27-2.88V0h-6.89V8.61c0,3.07.83,5.06,2.48,5.94-1.65,1-2.48,2.92-2.48,5.9V59.14h6.89V21.35a3,3,0,0,1,1.27-2.85,7.19,7.19,0,0,1,3.32-.55h3.37a7.06,7.06,0,0,1,3.27.55,3,3,0,0,1,1.27,2.85V59.14h6.88Z"/></g></g></svg>