<?xml version="1.0" encoding="utf-8"?>
<!-- Generator: Adobe Illustrator 24.0.1, SVG Export Plug-In . SVG Version: 6.00 Build 0)  -->
<svg version="1.1" id="Capa_1" xmlns="http://www.w3.org/2000/svg" xmlns:xlink="http://www.w3.org/1999/xlink" x="0px" y="0px"
	 viewBox="0 0 30 30" style="enable-background:new 0 0 30 30;" xml:space="preserve">
<style type="text/css">
	.st0{fill:#FFFFFF;}
</style>
<g>
	<rect x="6.9" y="12.1" class="st0" width="3.4" height="11"/>
	<circle class="st0" cx="8.6" cy="8.6" r="2"/>
	<path class="st0" d="M23,23v-6.4c0-0.7-0.1-1.4-0.2-2c-0.2-1-0.7-1.9-1.7-2.3c-0.8-0.4-1.6-0.5-2.4-0.4c-1.2,0.1-2.2,0.6-2.9,1.6
		h-0.1v-1.4h-3.3v11h3.3v-5.4c0-0.4,0-0.8,0.1-1.2c0.2-1,0.8-1.6,1.7-1.7c1.2-0.2,1.9,0.4,2.1,1.5c0.1,0.3,0.1,0.7,0.1,1v5.8L23,23
		C23.1,23,23.1,23,23,23z"/>
	<path class="st0" d="M24.5,2h-19C5.3,2,4.9,2,4.6,2.1c-0.2,0-0.4,0.1-0.6,0.2C4,2.4,3.9,2.4,3.8,2.4l0,0l-0.1,0
		C2.7,3.1,2,4.2,2,5.5v19C2,26.4,3.6,28,5.5,28h19c1.9,0,3.5-1.6,3.5-3.5v-19C28,3.6,26.4,2,24.5,2z M24.9,24.8
		c-0.1,0.1-0.2,0.2-0.4,0.2h-19C5.3,25,5,24.8,5,24.5v-19C5,5.3,5.2,5,5.5,5h18.9c0.2,0,0.5,0.2,0.5,0.5V24.8z"/>
</g>
</svg>
