<?xml version="1.0" encoding="utf-8"?>
<!-- Generator: Adobe Illustrator 24.0.1, SVG Export Plug-In . SVG Version: 6.00 Build 0)  -->
<svg version="1.1" id="Capa_1" xmlns="http://www.w3.org/2000/svg" xmlns:xlink="http://www.w3.org/1999/xlink" x="0px" y="0px"
	 viewBox="0 0 30 30" style="enable-background:new 0 0 30 30;" xml:space="preserve">
<style type="text/css">
	.st0{fill-rule:evenodd;clip-rule:evenodd;}
</style>
<g>
	<path class="st0" d="M10.6,18v3.7c0,1,1.5,1,1.5,0V18C12.1,17,10.6,17,10.6,18z"/>
	<path class="st0" d="M14.2,16.9v5.1c0,1,1.5,1,1.5,0v-5.1C15.8,15.9,14.2,15.9,14.2,16.9z"/>
	<path class="st0" d="M17.9,18v3.7c0,1,1.5,1,1.5,0V18C19.4,17,17.9,17,17.9,18z"/>
	<path class="st0" d="M27.8,10.2h-7.4l-3.6-6.8c-0.5-0.9-1.8-0.1-1.3,0.8l3.2,6h-7.3l3.2-6c0.5-0.9-0.8-1.7-1.3-0.8l-3.6,6.8H2.2
		c-1,0-1,1.5,0,1.5h0.9l1.6,11.5c0.3,2,0.9,3.8,3.4,3.8h13.6c2.3,0,3.1-1.6,3.3-3.5l1.7-11.8h0.9C28.8,11.7,28.8,10.2,27.8,10.2z
		 M23.7,23.5c-0.2,1.1-0.5,2-1.8,2H8.2c-1.6,0-1.7-1.2-1.9-2.4L4.7,11.7h4.1l-0.5,1H7.8c-1,0-1,1.5,0,1.5H10c0.9,0,1-1.4,0.1-1.5
		l-0.1,0l0.5-1h9l0.5,1l-0.1,0c-0.9,0.1-0.9,1.5,0.1,1.5h2.3c1,0,1-1.5,0-1.5h-0.5l-0.5-1h4.1L23.7,23.5z"/>
</g>
</svg>
