<?xml version="1.0" encoding="utf-8"?>
<!-- Generator: Adobe Illustrator 27.5.0, SVG Export Plug-In . SVG Version: 6.00 Build 0)  -->
<svg version="1.1" id="Capa_1" xmlns="http://www.w3.org/2000/svg" xmlns:xlink="http://www.w3.org/1999/xlink" x="0px" y="0px"
	 viewBox="0 0 30 30" style="enable-background:new 0 0 30 30;" xml:space="preserve">
<g>
	<g>
		<path d="M27.2,14.1H13.5c-0.4-1.6-1.9-2.9-3.6-2.9c-1.8,0-3.2,1.2-3.6,2.9H2.8c-0.5,0-0.9,0.4-0.9,0.9s0.4,0.9,0.9,0.9h3.4
			c0.4,1.6,1.9,2.9,3.6,2.9c1.8,0,3.2-1.2,3.6-2.9h13.7c0.5,0,0.9-0.4,0.9-0.9S27.7,14.1,27.2,14.1z M9.9,17.2c-0.9,0-1.7-0.5-2-1.3
			c-0.1-0.3-0.2-0.6-0.2-0.9s0.1-0.6,0.2-0.9c0.3-0.8,1.1-1.3,2-1.3c0.9,0,1.7,0.5,2,1.3c0.1,0.3,0.2,0.6,0.2,0.9s-0.1,0.6-0.2,0.9
			C11.5,16.6,10.8,17.2,9.9,17.2z"/>
	</g>
	<g>
		<path d="M27.2,23h-4.8c-0.4-1.6-1.9-2.9-3.6-2.9s-3.2,1.2-3.6,2.9H2.8c-0.5,0-0.9,0.4-0.9,0.9c0,0.5,0.4,0.9,0.9,0.9h12.3
			c0.4,1.6,1.9,2.9,3.6,2.9s3.2-1.2,3.6-2.9h4.8c0.5,0,0.9-0.4,0.9-0.9C28.1,23.4,27.7,23,27.2,23z M20.7,24.7
			c-0.3,0.8-1.1,1.3-2,1.3s-1.7-0.5-2-1.3c-0.1-0.3-0.2-0.6-0.2-0.9s0.1-0.6,0.2-0.9c0.3-0.8,1.1-1.3,2-1.3s1.7,0.5,2,1.3
			c0.1,0.3,0.2,0.6,0.2,0.9S20.9,24.5,20.7,24.7z"/>
	</g>
	<g>
		<path d="M27.2,5.3h-8.8c-0.4-1.6-1.9-2.9-3.6-2.9s-3.2,1.2-3.6,2.9H2.8c-0.5,0-0.9,0.4-0.9,0.9C1.9,6.6,2.3,7,2.8,7h8.4
			c0.4,1.6,1.9,2.9,3.6,2.9c1.8,0,3.2-1.2,3.6-2.9h8.8c0.5,0,0.9-0.4,0.9-0.9C28.1,5.6,27.7,5.3,27.2,5.3z M14.8,8.3
			c-0.9,0-1.7-0.5-2-1.3c-0.1-0.3-0.2-0.5-0.2-0.9s0.1-0.6,0.2-0.9c0.3-0.8,1.1-1.3,2-1.3c0.9,0,1.7,0.5,2,1.3
			C16.9,5.5,17,5.8,17,6.1S16.9,6.7,16.8,7C16.5,7.8,15.7,8.3,14.8,8.3z"/>
	</g>
</g>
</svg>
