<?xml version="1.0" encoding="utf-8"?>
<!-- Generator: Adobe Illustrator 24.0.1, SVG Export Plug-In . SVG Version: 6.00 Build 0)  -->
<svg version="1.1" id="Capa_1" xmlns="http://www.w3.org/2000/svg" xmlns:xlink="http://www.w3.org/1999/xlink" x="0px" y="0px"
	 viewBox="0 0 30 30" style="enable-background:new 0 0 30 30;" xml:space="preserve">
<style type="text/css">
	.st0{fill:#212121;}
</style>
<g>
	<path class="st0" d="M22.7,14.9V5.5c0-1.3-0.9-2.5-2.1-2.9c-0.3-0.1-0.6-0.2-1-0.2h-14c-0.3,0-0.6,0-0.9,0.1H4.6
		C3.8,2.9,3.2,3.3,2.9,4C2.5,4.5,2.4,5.1,2.4,5.7v15.4c0,0.2,0,0.4,0.2,0.5c0.2,0.3,0.6,0.4,0.8,0.3c0.2-0.1,0.4-0.2,0.5-0.3
		c1.3-1.1,2.7-2.2,4-3.4C8.1,18.1,8.3,18,8.4,18h11.1C21.3,18,22.7,16.7,22.7,14.9z M8.1,16.5c-0.3,0-0.6,0.1-0.9,0.3
		c-1,0.8-2,1.7-3,2.5L4,19.5V5.7C4,4.6,4.6,4,5.7,4h13.7c1.1,0,1.8,0.6,1.8,1.8v8.9c0,1.1-0.6,1.8-1.8,1.8H8.1z"/>
	<path class="st0" d="M17.4,7.1H7.9c-0.4,0-0.6,0.2-0.7,0.5C7,8.2,7.4,8.7,8,8.7h4.6h4.6c0.4,0,0.7-0.3,0.8-0.7S17.8,7.2,17.4,7.1z"
		/>
	<path class="st0" d="M14.1,10.2H11H7.8c-0.4,0-0.7,0.2-0.8,0.5c-0.2,0.6,0.2,1.1,0.8,1.1H14c0.4,0,0.7-0.2,0.8-0.5
		C15.1,10.8,14.7,10.2,14.1,10.2z"/>
	<path class="st0" d="M24.4,8.7c-0.4,0-0.8,0.3-0.8,0.7c-0.1,0.4,0.3,0.8,0.7,0.8c0.9,0.1,1.6,0.7,1.6,1.8v13l-0.4-0.2
		c-0.7-0.6-1.5-1.2-2.2-1.8c-0.3-0.2-0.6-0.3-0.9-0.3H11.9c-1.2,0-1.8-0.6-1.8-1.8v-0.6c0-0.4-0.3-0.7-0.7-0.7s-0.8,0.3-0.8,0.7
		c0,0.6,0,1.1,0.1,1.6c0.3,1.5,1.6,2.5,3.1,2.5h10.3c0.3,0,0.4,0.1,0.6,0.2c1.2,0.9,2.3,1.8,3.4,2.7c0.4,0.3,0.8,0.3,1.1,0
		c0.3-0.2,0.3-0.5,0.3-0.8V11.6C27.4,10,26,8.7,24.4,8.7z"/>
</g>
</svg>
