<?xml version="1.0" encoding="utf-8"?>
<!-- Generator: Adobe Illustrator 24.0.1, SVG Export Plug-In . SVG Version: 6.00 Build 0)  -->
<svg version="1.1" id="Capa_1" xmlns="http://www.w3.org/2000/svg" xmlns:xlink="http://www.w3.org/1999/xlink" x="0px" y="0px"
	 viewBox="0 0 30 30" style="enable-background:new 0 0 30 30;" xml:space="preserve">
<style type="text/css">
	.st0{fill:#212121;}
</style>
<image style="overflow:visible;enable-background:new    ;" width="512" height="512" xlink:href="cohete.png"  transform="matrix(0.75 0 0 0.75 5599.75 5989.4863)">
</image>
<g>
	<path class="st0" d="M2.4,28c-0.1-0.2-0.2-0.3-0.3-0.5C1.7,25.7,3,24,4.8,23.8c0.7-0.1,1.4,0.2,2,0.6c0.1,0.1,0.2,0.1,0.3,0
		c0.4-0.3,0.8-0.4,1.3-0.3c0.5-1.2,1.8-2,3.3-1.6c0.1-0.4,0.2-0.8,0.3-1.2c0.1-0.2,0.2-0.3,0.4-0.3c0.3,0,0.4,0.3,0.3,0.5
		c-0.2,0.5-0.2,1-0.1,1.6c0,0.2,0,0.3-0.2,0.4s-0.3,0.1-0.5,0c-0.8-0.5-1.8-0.4-2.4,0.3c-0.2,0.2-0.3,0.5-0.4,0.7
		C9,25,8.8,25.1,8.5,25c-0.5-0.1-0.9,0-1.2,0.4c-0.2,0.3-0.5,0.3-0.7,0c-0.6-0.8-1.7-1-2.6-0.5s-1.3,1.4-1.1,2.5
		c0.1,0.3,0,0.5-0.2,0.7C2.6,28,2.5,28,2.4,28z"/>
	<path class="st0" d="M27.3,28c-0.2-0.2-0.3-0.4-0.2-0.6c0.3-1.4-0.6-2.6-2-2.7c-0.7,0-1.2,0.2-1.6,0.7c-0.3,0.3-0.5,0.3-0.8,0
		C22.4,25,22,24.9,21.5,25c-0.4,0.1-0.5,0-0.6-0.4c-0.4-1.2-1.8-1.7-2.9-1.1c-0.2,0.1-0.3,0.2-0.5,0.1s-0.2-0.3-0.2-0.5
		c0.1-0.5,0.1-1-0.1-1.4c-0.1-0.3,0-0.5,0.2-0.6s0.5,0,0.5,0.3c0.1,0.4,0.2,0.7,0.3,1.1c0.5-0.2,1.1-0.2,1.7,0
		c0.7,0.2,1.2,0.7,1.6,1.4c0,0.1,0.1,0.2,0.2,0.2c0.5,0,0.9,0.1,1.3,0.4c0.1,0,0.1-0.1,0.1-0.1c1.8-1.4,4.3-0.4,4.7,1.8v0.1
		c0,0.3,0,0.5,0,0.8c-0.1,0.3-0.1,0.6-0.4,0.8C27.5,28,27.4,28,27.3,28z"/>
	<path class="st0" d="M19.3,19.3c0.2-0.7,0.3-1.4,0.3-2.1c0-0.9-0.2-1.8-0.5-2.7C19,14.3,19,14.1,19.2,14c0.2-0.2,0.6-0.1,0.7,0.2
		c0.2,0.7,0.4,1.4,0.5,2.1c0.2,1.3,0.1,2.5-0.4,3.8c-0.2,0.4-0.4,0.5-0.8,0.2c-0.6-0.5-1.2-1.1-1.8-1.5c-0.2,0.1-0.4,0.2-0.6,0.3
		c-1.2,0.4-2.3,0.4-3.5,0c-0.2-0.1-0.4-0.2-0.6-0.3c-0.5,0.5-1.1,1-1.7,1.5c-0.4,0.4-0.7,0.3-0.8-0.2c-0.7-2-0.6-3.9,0.2-5.8
		c0.1-0.3,0.3-0.3,0.5-0.3c0.2,0.1,0.3,0.3,0.2,0.6c-0.4,1-0.6,2-0.6,3.1c0,0.6,0.1,1.2,0.2,1.7h0.1c0.2-0.1,0.3-0.3,0.5-0.4
		c0.4-0.3,0.7-0.6,1.1-0.9c0.1-0.1,0.1-0.2,0.1-0.4c-0.5-1.7-0.9-3.3-1.1-5c-0.2-1.6-0.3-3.3,0.1-4.9c0.5-2.2,1.6-4,3.2-5.5
		c0.2-0.2,0.4-0.2,0.6,0c2.2,2.1,3.4,4.6,3.5,7.6c0,2.3-0.4,4.6-1,6.9c-0.1,0.3-0.2,0.6-0.3,0.9c0,0.1,0,0.2,0.1,0.3
		C18.1,18.3,18.7,18.8,19.3,19.3C19.2,19.3,19.2,19.3,19.3,19.3z M16.2,18.3c0.2,0,0.4-0.1,0.4-0.4c0.5-1.7,0.9-3.4,1.2-5.1
		c0.2-1.5,0.3-3.1,0.1-4.6c-0.1-0.6-0.3-1.1-0.4-1.7c-0.1,0.1-0.2,0.1-0.3,0.2C16,7.4,14.8,7.5,13.5,7c-0.3-0.1-0.4-0.3-0.3-0.6
		c0.1-0.2,0.3-0.3,0.6-0.2c0.2,0.1,0.3,0.1,0.5,0.2c1,0.2,1.9,0,2.8-0.6c-0.5-1-1.2-1.9-2-2.8c-0.7,0.7-1.3,1.4-1.8,2.3
		c-1.1,1.9-1.3,3.9-1.1,6c0.2,2.3,0.7,4.5,1.3,6.6c0.1,0.3,0.2,0.3,0.5,0.4c0-0.3-0.1-0.5-0.1-0.8c-0.1-1.2-0.1-2.5,0.3-3.7
		c0.1-0.3,0.2-0.5,0.4-0.8c0.3-0.4,0.8-0.4,1.1,0c0.1,0.1,0.2,0.3,0.3,0.5c0.3,0.8,0.4,1.7,0.4,2.6C16.2,16.9,16.2,17.6,16.2,18.3z
		 M15,13.8c0,0.1-0.1,0.3-0.1,0.4c-0.4,1.4-0.3,2.8-0.2,4.1c0,0.2,0.2,0.2,0.3,0.2c0.2,0,0.3,0,0.3-0.2c0-0.9,0.1-1.8,0.1-2.6
		C15.4,15,15.2,14.4,15,13.8z"/>
	<path class="st0" d="M15,24c0.4-0.8,0.7-1.5,0.9-2.3c0.1-0.5,0-0.9-0.2-1.4c-0.1-0.3-0.1-0.5,0.1-0.6c0.2-0.1,0.4,0,0.6,0.3
		c0.4,0.8,0.4,1.7,0.2,2.6c-0.3,0.9-0.7,1.7-1.1,2.4c-0.2,0.3-0.5,0.3-0.7,0c-0.6-1-1.1-2-1.3-3.1c-0.1-0.7,0-1.4,0.4-2
		c0.1-0.2,0.3-0.3,0.5-0.2c0.2,0.1,0.3,0.3,0.2,0.5c-0.4,0.8-0.3,1.6,0,2.4C14.6,23.1,14.8,23.5,15,24z"/>
	<path class="st0" d="M15,11.9c-1.2,0-2.2-1-2.2-2.2s1-2.2,2.2-2.2s2.2,1,2.2,2.2S16.2,11.9,15,11.9z M15,11.1
		c0.8,0,1.4-0.6,1.4-1.4c0-0.8-0.6-1.4-1.4-1.4c-0.8,0-1.4,0.6-1.4,1.4S14.2,11.1,15,11.1z"/>
</g>
</svg>
