<?xml version="1.0" encoding="utf-8"?>
<!-- Generator: Adobe Illustrator 27.5.0, SVG Export Plug-In . SVG Version: 6.00 Build 0)  -->
<svg version="1.1" id="Capa_1" xmlns="http://www.w3.org/2000/svg" xmlns:xlink="http://www.w3.org/1999/xlink" x="0px" y="0px"
	 viewBox="0 0 30 30" style="enable-background:new 0 0 30 30;" xml:space="preserve">
<style type="text/css">
	.st0{fill:#FFFFFF;}
</style>
<g>
	<path class="st0" d="M15.7,26.9c-0.5,0-0.9,0-1.4,0c-0.1,0-0.1,0-0.2,0c-1.7-0.1-3.2-0.5-4.7-1.4c-3.3-1.8-5.4-4.6-6.1-8.4
		c-0.1-0.5-0.1-0.9-0.2-1.4c0-0.5,0-0.9,0-1.4c0-0.1,0-0.1,0-0.2c0.1-1.7,0.5-3.2,1.4-4.7c2.2-3.9,5.5-6,10-6.3
		C16.4,3,18.3,3.4,20,4.3c4.2,2.1,6.5,5.5,6.8,10.2c0.1,2.2-0.3,4.2-1.4,6.1c-1.8,3.3-4.7,5.4-8.4,6.1
		C16.6,26.8,16.1,26.8,15.7,26.9z M25,15c0-5.5-4.5-10-10-10C9.5,5,5,9.5,5,15c0,5.5,4.5,10,10,10C20.5,25,25,20.5,25,15z"/>
	<path class="st0" d="M14.1,16.7c0-0.4,0-0.7,0-1.1c0-0.6,0.3-0.9,0.9-1c0.6-0.1,1.1-0.2,1.5-0.7c0.5-0.6,0.5-1.3,0.2-1.9
		c-0.3-0.7-0.9-1.1-1.7-1c-0.9,0-1.6,0.7-1.8,1.6c0,0.1,0,0.2,0,0.3c0,0.5-0.5,0.9-1,0.9c-0.5,0-0.9-0.4-0.9-0.9
		c0-1.3,0.6-2.3,1.7-3.1c1.2-0.8,2.6-0.9,3.9-0.1c1.3,0.8,1.9,1.9,1.9,3.5c-0.1,1.5-1.1,2.8-2.6,3.3c-0.2,0.1-0.2,0.1-0.2,0.3
		c0,0.4,0,0.8,0,1.2c0,0.6-0.4,1-0.9,1c-0.5,0-0.9-0.4-0.9-1C14.1,17.5,14.1,17.1,14.1,16.7z"/>
	<path class="st0" d="M15,21.8c-0.6,0-1.2-0.5-1.1-1.2c0-0.6,0.5-1.1,1.2-1.1c0.6,0,1.2,0.5,1.1,1.2C16.1,21.3,15.6,21.8,15,21.8z"
		/>
</g>
</svg>
