<?xml version="1.0" encoding="utf-8"?>
<!-- Generator: Adobe Illustrator 27.5.0, SVG Export Plug-In . SVG Version: 6.00 Build 0)  -->
<svg version="1.1" id="Capa_1" xmlns="http://www.w3.org/2000/svg" xmlns:xlink="http://www.w3.org/1999/xlink" x="0px" y="0px"
	 viewBox="0 0 30 30" style="enable-background:new 0 0 30 30;" xml:space="preserve">
<g>
	<path d="M28,14c0,0.5,0,1,0,1.5c0,0.1,0,0.1,0,0.2c-0.1,1.8-0.6,3.5-1.5,5.1c-1.5,2.6-3.6,4.5-6.3,5.7c-1.8,0.8-3.7,1.1-5.6,0.9
		c-1.9-0.1-3.8-0.7-5.5-1.6c-0.2-0.1-0.3-0.1-0.5,0c-2.1,0.7-4.1,1.4-6.2,2.1C2.2,27.9,2.1,28,2,28c0-0.1,0.1-0.2,0.1-0.3
		c0.7-2.1,1.4-4.1,2.1-6.2c0.1-0.2,0.1-0.3,0-0.5c-0.8-1.5-1.4-3.1-1.5-4.8c-0.2-1.7,0-3.4,0.4-5c0.6-2,1.6-3.7,3-5.2
		c1.9-2,4.2-3.2,6.9-3.7c0.5-0.1,1-0.1,1.5-0.2c0.5,0,1,0,1.5,0c0.2,0,0.4,0,0.5,0.1c2.7,0.3,5.1,1.3,7.2,3.1c2.2,2,3.6,4.4,4.1,7.4
		C27.9,13,27.9,13.5,28,14z M4.5,25.5c0.1,0,0.2-0.1,0.3-0.1c1.3-0.4,2.6-0.9,3.9-1.3c0.1-0.1,0.3,0,0.4,0c0.3,0.2,0.7,0.4,1,0.6
		c2.1,1,4.3,1.4,6.7,1.1c2.5-0.4,4.6-1.4,6.3-3.2c2.8-2.9,3.8-6.5,2.9-10.4c-1.4-6-7.5-9.7-13.4-8.2C9.4,4.7,7,6.6,5.4,9.5
		c-1.1,2.1-1.5,4.3-1.2,6.7c0.2,1.6,0.8,3.2,1.7,4.6C6,21,6,21.1,6,21.3c-0.4,1.3-0.9,2.6-1.3,3.9C4.6,25.2,4.6,25.3,4.5,25.5z"/>
	<path d="M6.5,14.7c0-4.9,4-8.9,8.9-8.9c4.9,0,8.9,4,8.9,8.9c0,5-4,8.9-8.9,8.9C10.4,23.6,6.5,19.6,6.5,14.7z M13,15.5
		c0.3,2.2,1.2,4.1,2.4,5.9c1.2-1.8,2.1-3.7,2.4-5.9C16.2,15.5,14.6,15.5,13,15.5z M15.4,8c-1.2,1.8-2.1,3.7-2.3,5.9
		c1.6,0,3.1,0,4.7,0C17.7,12.5,16.4,9.3,15.4,8z M22.6,15.5c-1.1,0-2.1,0-3.1,0c-0.1,0-0.1,0.1-0.2,0.2c0,0.2-0.1,0.5-0.1,0.7
		c-0.3,1.8-1.1,3.5-2,5.1c-0.1,0.1-0.1,0.2-0.2,0.3C19.9,21.2,22.4,18.5,22.6,15.5z M22.6,13.9c-0.3-3.4-3.1-5.9-5.6-6.3
		c1.2,1.9,2.1,4,2.3,6.3C20.5,13.9,21.5,13.9,22.6,13.9z M11.4,15.5c-1.1,0-2.2,0-3.3,0c0.3,3.1,2.8,5.7,5.6,6.3
		C12.6,19.8,11.7,17.8,11.4,15.5z M13.7,7.6c-3,0.6-5.4,3.5-5.6,6.3c1.1,0,2.2,0,3.3,0C11.7,11.6,12.6,9.6,13.7,7.6z"/>
</g>
</svg>
