<?xml version="1.0" encoding="utf-8"?>
<!-- Generator: Adobe Illustrator 24.0.1, SVG Export Plug-In . SVG Version: 6.00 Build 0)  -->
<svg version="1.1" id="Capa_1" xmlns="http://www.w3.org/2000/svg" xmlns:xlink="http://www.w3.org/1999/xlink" x="0px" y="0px"
	 viewBox="0 0 30 30" style="enable-background:new 0 0 30 30;" xml:space="preserve">
<style type="text/css">
	.st0{fill:#212121;}
</style>
<path class="st0" d="M15,27.5H9.6c-2.4,0-4.4-2-4.4-4.4v-5.4c0-0.4,0.2-0.7,0.6-0.9c0.3-0.1,0.7-0.1,1,0.2C6.9,17.3,7,17.5,7,17.8
	V23c0,1.5,1.2,2.7,2.7,2.7h10.6c1.5,0,2.7-1.2,2.7-2.7v-5.3c0-0.5,0.3-0.9,0.8-0.9c0.4-0.1,0.9,0.2,1,0.7v5.7c0,2.4-2,4.4-4.4,4.4
	C18.6,27.5,16.8,27.5,15,27.5z M15,4.6c-0.1,0.1-0.1,0.2-0.2,0.3C11.2,8.4,7.7,12,4.1,15.5c-0.3,0.3-0.6,0.5-1,0.3
	c-0.5-0.1-0.7-0.6-0.6-1.1c0-0.1,0.1-0.2,0.2-0.3l0.2-0.2L14.2,2.9c0.5-0.5,1-0.5,1.5,0l11.4,11.4c0.6,0.6,0.4,1.4-0.3,1.6
	c-0.4,0.1-0.7,0-0.9-0.3l-3.3-3.3l-7.4-7.4C15.1,4.8,15.1,4.7,15,4.6z"/>
</svg>
