<svg xmlns="http://www.w3.org/2000/svg" viewBox="0 0 12.1 11.9" style="enable-background:new 0 0 12.1 11.9" xml:space="preserve"><path d="m11.5 3-.1-.1H11.1v-.4s0-.1-.1-.1h-.4v-.1H9.8l-.1.2h-.4l-.1.2v.1h-.4v-.1s0-.1-.1-.1h-.6L8 2.5h-.2l-.2.1h-.2v.1l-.2.1v.1H7l-.1-.1V2.5H7s.1 0 .1-.1v-.1H7v.1h-.4l-.2-.1h-.1L6 2.2H5.7v.1h-.4v.1h-.2v-.1l.1-.1v-.1.1L5 2.1v-.7h-.1l-.1-.1v-.1H4.1L4 1V.9H3.2L3 .7 2.9.6h-.2L2.6.5H2.3V.8l-.1.1v.2c0 .1 0 0 0 0V1.4h.1v.1l.3.5v.2l.1.1.1.1V4.2l-.6.4-.2.1v.5h-.2l-.2.4h-.1v.1l-.3.2-.1.1v.4h.1v.1l.2.2h-.1V7.6h.1v.5h-.1V8.4H.9v.1L.8 9h.1V9.8l-.1.1-.2.1v.2h.2v.1h.1l.5.7h.1l.2.1h.1l.2.1.1.1H2.4l.1-.1.2-.3.1-.1.2-.1.1-.1v-.1s0-.1-.1-.1h-.2v-.1h-.2v-.1l.4-.5.2-.2.4-.4h.1l.1-.1h.4v-.1l.2-.1.9-.3h.3l.7-.2h.2l.3-.3h.4l.2-.1.1-.1.1-.1.2-.3.1-.1.1-.1.2-.2.2-.1.1-.1h.1l.4-.2.2-.1.4-.2v-.1h.4l.2-.2.3-.2.1-.1v-.1l.1-.1h.2l.1-.1v-.1l.3-.3v-.8l-.1-.2h-.1l-.1-.1v-.5H11.3v-.2l.2-.2c.1.1.1 0 0 0zm-9.1 8h-.2.2z" style="fill:#fff"/></svg>