<?xml version="1.0" encoding="utf-8"?>
<!-- Generator: Adobe Illustrator 27.5.0, SVG Export Plug-In . SVG Version: 6.00 Build 0)  -->
<svg version="1.1" id="Capa_1" xmlns="http://www.w3.org/2000/svg" xmlns:xlink="http://www.w3.org/1999/xlink" x="0px" y="0px"
	 viewBox="0 0 507.8 507.8" style="enable-background:new 0 0 507.8 507.8;" xml:space="preserve">
<style type="text/css">
	.st0{fill:#FFFFFF;}
</style>
<path class="st0" d="M411.6,197.5c0-7.5-0.4-15-1.5-22.3c-4.9-32.5-21.1-56.8-52.7-69c-12.8-4.9-26.2-7.1-39.8-7.2
	c-42.1-0.2-84.2-0.2-126.2,0c-15.7,0.1-31.1,2.9-45.4,9.6c-31.8,14.9-45.9,41.8-48,75.2c-1.5,23.5-0.3,47.1-0.3,70.7h-0.4
	c0,19.2-0.1,38.3,0.1,57.5c0.1,7.3,0.4,14.6,1.5,21.8c4.7,31.2,19.9,55.1,49.9,67.8c13.9,5.9,28.6,8.3,43.6,8.4
	c39.6,0.2,79.3,0.2,119,0c8.6-0.1,17.3-0.6,25.8-2c31.9-5.4,55.5-21.7,67.4-52.7c4.9-12.9,7-26.5,7-40.3
	C411.7,275.8,411.7,236.6,411.6,197.5z M382.5,314.2c-0.2,9.4-1.5,19.1-4.5,27.9c-7.9,23.4-25.5,35.7-49.6,37.4
	c-21.1,1.5-42.3,1.5-63.5,1.6c-24,0.1-48.1-0.1-72.2-0.6c-7.4-0.1-14.9-1.2-22.1-2.7c-27.5-5.8-40-27.5-43.2-49.3
	c-0.8-5.5-1.1-11.1-1.1-16.7c0-39.1-0.3-78.3,0.2-117.5c0.1-9.2,1.6-18.7,4.5-27.4c7.7-23.2,25.2-35.4,49-37.3
	c20.7-1.6,41.7-1.2,62.5-1.7c4.1-0.1,8.1,0,12.2,0v0.5c20.6,0,41.1-0.2,61.6,0.1c7.1,0.2,14.3,0.9,21.2,2.5
	c25,5.7,41.1,23.9,44.2,49.5c0.6,5.5,1,11.1,1,16.7C382.8,236.2,383,275.2,382.5,314.2z"/>
<path class="st0" d="M354.3,172c0,9-7.3,16.5-16.3,16.6c-9.4,0.1-16.9-7.2-16.8-16.5c0.1-9.1,7.4-16.4,16.5-16.4
	C346.8,155.7,354.2,162.9,354.3,172z"/>
<path class="st0" d="M254.7,171.7c-46.2,0-82.9,36.8-82.9,83c0,45.7,37,82.4,83,82.4c45.4,0.1,82.5-37,82.4-82.5
	C337.1,208.5,300.5,171.7,254.7,171.7z M253.8,307.7c-29.7-0.6-53.3-24.7-52.7-54c0.6-29.8,24.7-53.2,54-52.6
	c29.8,0.6,53.3,24.7,52.7,54C307.2,284.9,283.2,308.3,253.8,307.7z"/>
</svg>
