<?xml version="1.0" encoding="utf-8"?>
<!-- Generator: Adobe Illustrator 27.5.0, SVG Export Plug-In . SVG Version: 6.00 Build 0)  -->
<svg version="1.1" id="Capa_1" xmlns="http://www.w3.org/2000/svg" xmlns:xlink="http://www.w3.org/1999/xlink" x="0px" y="0px"
	 viewBox="0 0 507.8 508" style="enable-background:new 0 0 507.8 508;" xml:space="preserve">
<style type="text/css">
	.st0{display:none;fill:#FFFFFF;}
	.st1{fill:#FFFFFF;}
</style>
<path class="st0" d="M507.9,254c0,140.2-113.7,253.9-253.9,253.9C113.7,507.9,0,394.2,0,254C0,113.7,113.7,0,253.9,0
	C394.2,0,507.9,113.7,507.9,254z"/>
<path class="st1" d="M387,383.6c0,1.1-0.1,2.3-0.2,3.9h-55.1v-5.4c0-28.7,0.1-57.4-0.1-86.1c-0.1-6.7-0.7-13.5-2-20.1
	c-2.4-12.6-10-20-20.9-21.4c-15.7-2-27.5,3-33.5,14.5c-4.9,9.3-5.7,19.6-5.7,29.8c-0.1,27.7,0,55.4,0,83.2v5.7H215V210h52.6v23
	c0.4,0.3,0.8,0.5,1.3,0.8c0.2-0.6,0.3-1.3,0.6-1.8c12.7-19.4,31.3-27.1,53.6-26.6c7.7,0.2,15.5,1.3,22.9,3.3
	c21.4,5.9,32.9,21.3,37,42.2c2.4,12.2,3.6,24.8,3.8,37.3C387.3,319.9,387,351.8,387,383.6z"/>
<rect x="124.8" y="210.1" class="st1" width="54.7" height="177.6"/>
<path class="st1" d="M184.1,153.1c0.1,17.9-14.4,32.3-32.4,32.2c-17.7,0-32-14.4-31.9-32.2c0.1-17.6,14.5-32.1,32.1-32.1
	C169.5,121,184.1,135.5,184.1,153.1z"/>
</svg>
