<?xml version="1.0" encoding="utf-8"?>
<!-- Generator: Adobe Illustrator 27.5.0, SVG Export Plug-In . SVG Version: 6.00 Build 0)  -->
<svg version="1.1" id="Capa_1" xmlns="http://www.w3.org/2000/svg" xmlns:xlink="http://www.w3.org/1999/xlink" x="0px" y="0px"
	 viewBox="0 0 507.8 508" style="enable-background:new 0 0 507.8 508;" xml:space="preserve">
<style type="text/css">
	.st0{display:none;fill:#FFFFFF;}
	.st1{fill:#FFFFFF;}
</style>
<path class="st0" d="M507.9,254c0,140.2-113.7,253.9-253.9,253.9C113.7,507.9,0,394.2,0,254C0,113.7,113.7,0,253.9,0
	C394.2,0,507.9,113.7,507.9,254z"/>
<path class="st1" d="M378.7,175.1c-4.7,23.2-9.8,46.4-14.7,69.6c-8.8,41.4-17.6,82.8-26.4,124.2c-3.5,16.6-12.7,20.1-26.5,9.9
	c-19-14-37.9-28-56.9-42c-0.9-0.7-1.9-1.3-3.2-2.1c-10.6,10.2-20.8,20.3-31.3,30c-3,2.7-6.9,4.3-10.4,6.5l-1.2-1.2
	c0-1.3-0.1-2.5,0-3.8c1.3-19.2,2.6-38.5,4.1-57.7c0.2-2,1.8-4.1,3.4-5.6c31.8-28.8,63.6-57.5,95.4-86.3c5.8-5.2,11.5-10.4,17.2-15.6
	c1.4-1.3,2.5-2.9,4-4.7c-4.6-2.7-7.8-0.7-11,1.3c-13.8,8.6-27.6,17.4-41.4,26c-32.9,20.7-65.8,41.4-98.7,62.2
	c-3.1,2-5.7,2.3-9.2,1.2c-19-6.1-38-11.9-57-17.9c-4.5-1.5-10-2.9-10.4-8.5c-0.5-5.8,4.8-8.4,9.3-10.3c19.1-7.7,38.3-15.1,57.5-22.5
	c61.9-23.9,123.8-47.7,185.7-71.6c6.1-2.3,12.3-5.2,18.2-0.2C381,161.4,380.1,168.5,378.7,175.1z"/>
</svg>
