<?xml version="1.0" encoding="utf-8"?>
<!-- Generator: Adobe Illustrator 27.5.0, SVG Export Plug-In . SVG Version: 6.00 Build 0)  -->
<svg version="1.1" id="Capa_1" xmlns="http://www.w3.org/2000/svg" xmlns:xlink="http://www.w3.org/1999/xlink" x="0px" y="0px"
	 viewBox="0 0 507.8 508" style="enable-background:new 0 0 507.8 508;" xml:space="preserve">
<style type="text/css">
	.st0{display:none;fill:#FFFFFF;}
	.st1{fill:#FFFFFF;}
</style>
<path class="st0" d="M507.9,254c0,140.2-113.7,253.9-253.9,253.9C113.7,507.9,0,394.2,0,254C0,113.7,113.7,0,253.9,0
	C394.2,0,507.9,113.7,507.9,254z"/>
<path class="st1" d="M307.3,204.5v6.2c0.1,32.5,0.4,65,0.3,97.5c0,42.5-27,77.3-68.1,88.1c-49.6,13.1-100.1-17.9-111.3-68.3
	c-10.8-48.6,22.1-97.3,72.2-106.2c9.6-1.7,19.6-1.4,29.9-2v48.3c-7.7,0-15.6-1.3-23,0.2c-21.4,4.5-35.6,25.2-32.8,46.4
	c2.9,21.8,21.5,38,43.3,37.7c21.9-0.3,39.9-17.1,41.9-39c0.3-2.8,0.3-5.6,0.3-8.4c0-62.7,0.1-125.4,0.1-188.1V110h47
	c0.9,19.8,7.8,37,21.9,51c14,13.8,31.1,20.5,51.1,21.3v46.8C353.3,229.3,329.7,220.6,307.3,204.5z"/>
</svg>
