<?xml version="1.0" encoding="utf-8"?>
<!-- Generator: Adobe Illustrator 27.5.0, SVG Export Plug-In . SVG Version: 6.00 Build 0)  -->
<svg version="1.1" id="Capa_1" xmlns="http://www.w3.org/2000/svg" xmlns:xlink="http://www.w3.org/1999/xlink" x="0px" y="0px"
	 viewBox="0 0 507.8 508" style="enable-background:new 0 0 507.8 508;" xml:space="preserve">
<style type="text/css">
	.st0{display:none;fill:#FFFFFF;}
	.st1{fill:#FFFFFF;}
</style>
<path class="st0" d="M507.9,254c0,140.2-113.7,253.9-253.9,253.9C113.7,507.9,0,394.2,0,254C0,113.7,113.7,0,253.9,0
	C394.2,0,507.9,113.7,507.9,254z"/>
<path class="st1" d="M398.5,169.2c-6.8,9.9-14.7,18.5-24.1,25.6c-3.3,2.5-4.1,5.2-4.2,9.1c-1.7,64.9-28.5,116.7-85.9,148.2
	c-55.1,30.3-111.6,27.6-166.5-3.2c-0.8-0.5-1.5-1.1-3.3-2.4c31.9,2.6,59.7-5,85.4-24.2c-26.9-2.8-44.8-15.9-54.6-41.1h24.5
	c-28.9-11.4-47.1-34.9-44.4-57.9c8,2.2,16,4.5,24,6.8c0.2-0.4,0.4-0.7,0.7-1.1c-25.2-21.5-31.1-47.1-17.1-78.1
	c32,37.4,71.8,58,121.2,61.5c-3.1-16.2-0.8-30.8,7.5-44.3c19.2-31.2,62.8-37.1,89.5-12.1c2.4,2.2,4.4,3,7.5,1.9
	c10.7-3.9,21.4-7.6,32.1-11.4c-4,12.1-12.1,21.8-23,29.4c0.2,0.5,0.4,0.9,0.6,1.4C378.3,174.6,388.1,172,398.5,169.2z"/>
</svg>
