<?xml version="1.0" encoding="utf-8"?>
<!-- Generator: Adobe Illustrator 27.5.0, SVG Export Plug-In . SVG Version: 6.00 Build 0)  -->
<svg version="1.1" id="Capa_1" xmlns="http://www.w3.org/2000/svg" xmlns:xlink="http://www.w3.org/1999/xlink" x="0px" y="0px"
	 viewBox="0 0 507.7 508" style="enable-background:new 0 0 507.7 508;" xml:space="preserve">
<style type="text/css">
	.st0{fill:#FFFFFF;}
</style>
<path class="st0" d="M407.5,179.1c-2.9-16.7-14.4-27-31-30.8c-5-1.1-10.2-2-15.3-2.2c-37.9-1.8-189.2-1.2-224.1,1.2
	c-20.2,1.4-33.8,13.9-37.2,33.9c-3,17.4-6.2,115.6,0,146.7c3.6,18,15,29.5,33.2,32.1c18.1,2.5,171.6,6.9,230,2.1
	c29.2-2.4,42.7-14.6,46.6-43.1C413.6,290.9,410.6,197.3,407.5,179.1z M222.2,301.9v-95.6c27.7,15.9,54.9,31.6,83,47.8
	C277.3,270.2,250,285.9,222.2,301.9z"/>
</svg>
